{
 "cells": [
  {
   "cell_type": "code",
   "execution_count": 93,
   "metadata": {},
   "outputs": [],
   "source": [
    "import mido\n",
    "from mido import MidiFile, MidiTrack, Message, MetaMessage, bpm2tempo, tempo2bpm\n",
    "from midi_player import MIDIPlayer\n",
    "import os"
   ]
  },
  {
   "cell_type": "code",
   "execution_count": 95,
   "metadata": {},
   "outputs": [
    {
     "data": {
      "text/plain": [
       "500000"
      ]
     },
     "execution_count": 95,
     "metadata": {},
     "output_type": "execute_result"
    }
   ],
   "source": [
    "bpm2tempo(120)"
   ]
  },
  {
   "cell_type": "code",
   "execution_count": 41,
   "metadata": {},
   "outputs": [
    {
     "name": "stdout",
     "output_type": "stream",
     "text": [
      "Pop 750\n",
      ".DS_Store 0\n",
      "Blues 129\n",
      "Latin 253\n",
      "Ambient 185\n",
      "World 503\n",
      "Reggae 26\n",
      "Electronic 161\n",
      "Classical 1398\n",
      "Rock 3137\n",
      "Religious 55\n",
      "Folk 90\n",
      "Unknown 2171\n",
      "Soul 351\n",
      "Children 24\n",
      "Soundtracks 947\n",
      "Country 246\n",
      "Rap 158\n",
      "Jazz 492\n",
      "Total: 11076\n"
     ]
    }
   ],
   "source": [
    "data_path = '_adl-piano-midi/midi/adl-piano-midi'\n",
    "total_midi_count = 0\n",
    "for path in os.listdir(data_path):\n",
    "    midi_count = 0\n",
    "    for _, _, files in os.walk(os.path.join(data_path, path)):\n",
    "        for file in files:\n",
    "            if file.endswith('.mid'): midi_count += 1\n",
    "    print(path, midi_count)\n",
    "    total_midi_count += midi_count\n",
    "\n",
    "print('Total:', total_midi_count)"
   ]
  },
  {
   "cell_type": "code",
   "execution_count": 42,
   "metadata": {},
   "outputs": [],
   "source": [
    "# TODO: Create the midi parser.\n",
    "# Following https://arxiv.org/pdf/1808.03715 - 5.0.1"
   ]
  },
  {
   "cell_type": "code",
   "execution_count": 43,
   "metadata": {},
   "outputs": [],
   "source": [
    "midi_path = './_adl-piano-midi/midi/adl-piano-midi/Classical/Classical Flute/James Galway/Hero.mid'\n",
    "# midi_path = './_adl-piano-midi/midi/adl-piano-midi/Folk/Alpine Yodeling/Jacob Sisters/La-La-La.mid'"
   ]
  },
  {
   "cell_type": "code",
   "execution_count": 44,
   "metadata": {},
   "outputs": [
    {
     "name": "stdout",
     "output_type": "stream",
     "text": [
      "MetaMessage('set_tempo', tempo=1000000, time=0)\n",
      "MetaMessage('time_signature', numerator=4, denominator=4, clocks_per_click=24, notated_32nd_notes_per_beat=8, time=0)\n",
      "MetaMessage('key_signature', key='E', time=0)\n",
      "MetaMessage('end_of_track', time=1)\n",
      "program_change channel=0 program=0 time=0\n",
      "control_change channel=0 control=7 value=110 time=0\n",
      "control_change channel=0 control=64 value=127 time=0\n",
      "\t note_on channel=0 note=66 velocity=100 time=0\n",
      "\t note_on channel=0 note=68 velocity=100 time=0\n",
      "\t note_on channel=0 note=71 velocity=100 time=0\n",
      "\t note_on channel=0 note=64 velocity=100 time=60\n",
      "\t note_on channel=0 note=71 velocity=0 time=90\n",
      "\t note_on channel=0 note=71 velocity=100 time=0\n",
      "\t note_on channel=0 note=71 velocity=0 time=30\n",
      "\t note_on channel=0 note=76 velocity=100 time=0\n",
      "\t note_on channel=0 note=75 velocity=100 time=30\n",
      "\t note_on channel=0 note=76 velocity=0 time=2\n",
      "\t note_on channel=0 note=75 velocity=0 time=28\n",
      "\t note_on channel=0 note=78 velocity=100 time=5\n",
      "\t note_on channel=0 note=76 velocity=100 time=55\n",
      "\t note_on channel=0 note=78 velocity=0 time=5\n",
      "\t note_on channel=0 note=76 velocity=0 time=25\n",
      "\t note_on channel=0 note=76 velocity=100 time=0\n",
      "\t note_on channel=0 note=63 velocity=100 time=30\n",
      "\t note_on channel=0 note=64 velocity=0 time=0\n",
      "\t note_on channel=0 note=66 velocity=0 time=0\n",
      "\t note_on channel=0 note=68 velocity=0 time=0\n",
      "\t note_on channel=0 note=71 velocity=100 time=30\n",
      "\t note_on channel=0 note=76 velocity=0 time=0\n",
      "\t note_on channel=0 note=71 velocity=0 time=30\n",
      "\t note_on channel=0 note=75 velocity=100 time=0\n",
      "\t note_on channel=0 note=75 velocity=0 time=30\n",
      "\t note_on channel=0 note=76 velocity=100 time=0\n",
      "\t note_on channel=0 note=61 velocity=100 time=30\n",
      "\t note_on channel=0 note=63 velocity=0 time=0\n",
      "\t note_on channel=0 note=68 velocity=100 time=30\n",
      "\t note_on channel=0 note=76 velocity=0 time=30\n",
      "\t note_on channel=0 note=71 velocity=100 time=2\n",
      "\t note_on channel=0 note=71 velocity=0 time=87\n",
      "\t note_on channel=0 note=71 velocity=100 time=0\n",
      "\t note_on channel=0 note=71 velocity=0 time=3\n",
      "\t note_on channel=0 note=76 velocity=100 time=26\n",
      "\t note_on channel=0 note=76 velocity=0 time=30\n",
      "\t note_on channel=0 note=75 velocity=100 time=2\n",
      "\t note_on channel=0 note=75 velocity=0 time=30\n",
      "\t note_on channel=0 note=78 velocity=100 time=0\n",
      "\t note_on channel=0 note=61 velocity=0 time=40\n",
      "\t note_on channel=0 note=76 velocity=100 time=20\n",
      "\t note_on channel=0 note=78 velocity=0 time=0\n",
      "\t note_on channel=0 note=76 velocity=0 time=30\n",
      "\t note_on channel=0 note=76 velocity=100 time=0\n",
      "\t note_on channel=0 note=59 velocity=100 time=30\n",
      "\t note_on channel=0 note=68 velocity=0 time=0\n",
      "\t note_on channel=0 note=59 velocity=0 time=30\n",
      "\t note_on channel=0 note=68 velocity=100 time=0\n",
      "\t note_on channel=0 note=76 velocity=0 time=0\n",
      "\t note_on channel=0 note=75 velocity=100 time=30\n",
      "\t note_on channel=0 note=75 velocity=0 time=29\n",
      "\t note_on channel=0 note=76 velocity=100 time=1\n",
      "control_change channel=0 control=64 value=0 time=23\n",
      "\t note_on channel=0 note=57 velocity=100 time=7\n",
      "\t note_on channel=0 note=68 velocity=0 time=0\n",
      "\t note_on channel=0 note=69 velocity=100 time=0\n",
      "\t note_on channel=0 note=73 velocity=100 time=0\n",
      "\t note_on channel=0 note=76 velocity=0 time=0\n",
      "control_change channel=0 control=64 value=127 time=17\n",
      "\t note_on channel=0 note=73 velocity=0 time=43\n",
      "\t note_on channel=0 note=75 velocity=100 time=0\n",
      "\t note_on channel=0 note=75 velocity=0 time=59\n",
      "\t note_on channel=0 note=76 velocity=100 time=1\n",
      "\t note_on channel=0 note=69 velocity=0 time=59\n",
      "\t note_on channel=0 note=69 velocity=100 time=0\n",
      "\t note_on channel=0 note=69 velocity=0 time=1\n",
      "\t note_on channel=0 note=73 velocity=100 time=60\n",
      "\t note_on channel=0 note=76 velocity=0 time=0\n",
      "\t note_on channel=0 note=73 velocity=0 time=60\n",
      "\t note_on channel=0 note=75 velocity=100 time=5\n",
      "\t note_on channel=0 note=56 velocity=100 time=55\n",
      "\t note_on channel=0 note=57 velocity=0 time=0\n",
      "\t note_on channel=0 note=76 velocity=100 time=1\n",
      "\t note_on channel=0 note=75 velocity=0 time=4\n",
      "\t note_on channel=0 note=71 velocity=100 time=58\n",
      "control_change channel=0 control=64 value=0 time=49\n",
      "\t note_on channel=0 note=54 velocity=100 time=6\n",
      "\t note_on channel=0 note=56 velocity=0 time=2\n",
      "\t note_on channel=0 note=69 velocity=100 time=1\n",
      "\t note_on channel=0 note=76 velocity=0 time=0\n",
      "\t note_on channel=0 note=71 velocity=0 time=2\n",
      "control_change channel=0 control=64 value=127 time=12\n",
      "\t note_on channel=0 note=64 velocity=100 time=105\n",
      "\t note_on channel=0 note=64 velocity=0 time=58\n",
      "\t note_on channel=0 note=66 velocity=100 time=2\n",
      "\t note_on channel=0 note=66 velocity=0 time=55\n",
      "\t note_on channel=0 note=57 velocity=100 time=3\n",
      "control_change channel=0 control=64 value=0 time=2\n",
      "\t note_on channel=0 note=54 velocity=0 time=0\n",
      "\t note_on channel=0 note=64 velocity=100 time=0\n",
      "\t note_on channel=0 note=69 velocity=0 time=1\n",
      "\t note_on channel=0 note=47 velocity=100 time=2\n",
      "control_change channel=0 control=64 value=127 time=13\n",
      "\t note_on channel=0 note=59 velocity=100 time=104\n",
      "\t note_on channel=0 note=64 velocity=0 time=0\n",
      "\t note_on channel=0 note=47 velocity=0 time=57\n",
      "\t note_on channel=0 note=59 velocity=0 time=3\n",
      "\t note_on channel=0 note=64 velocity=100 time=0\n",
      "control_change channel=0 control=64 value=0 time=58\n",
      "\t note_on channel=0 note=52 velocity=100 time=0\n",
      "\t note_on channel=0 note=57 velocity=0 time=0\n",
      "\t note_on channel=0 note=66 velocity=100 time=0\n",
      "\t note_on channel=0 note=59 velocity=100 time=2\n",
      "\t note_on channel=0 note=64 velocity=0 time=0\n",
      "control_change channel=0 control=64 value=127 time=14\n",
      "\t note_on channel=0 note=66 velocity=0 time=39\n",
      "\t note_on channel=0 note=64 velocity=100 time=5\n",
      "\t note_on channel=0 note=59 velocity=0 time=24\n",
      "\t note_on channel=0 note=64 velocity=0 time=1\n",
      "\t note_on channel=0 note=66 velocity=100 time=37\n",
      "\t note_on channel=0 note=68 velocity=100 time=0\n",
      "\t note_on channel=0 note=71 velocity=100 time=0\n",
      "\t note_on channel=0 note=66 velocity=0 time=59\n",
      "\t note_on channel=0 note=64 velocity=100 time=1\n",
      "\t note_on channel=0 note=68 velocity=0 time=0\n",
      "\t note_on channel=0 note=71 velocity=0 time=0\n",
      "\t note_on channel=0 note=64 velocity=0 time=60\n",
      "\t note_on channel=0 note=66 velocity=100 time=0\n",
      "\t note_on channel=0 note=68 velocity=100 time=0\n",
      "\t note_on channel=0 note=71 velocity=100 time=0\n",
      "\t note_on channel=0 note=64 velocity=100 time=60\n",
      "\t note_on channel=0 note=66 velocity=0 time=0\n",
      "\t note_on channel=0 note=71 velocity=0 time=0\n",
      "\t note_on channel=0 note=68 velocity=0 time=1\n",
      "\t note_on channel=0 note=64 velocity=0 time=59\n",
      "\t note_on channel=0 note=66 velocity=100 time=0\n",
      "\t note_on channel=0 note=68 velocity=100 time=0\n",
      "\t note_on channel=0 note=71 velocity=100 time=2\n",
      "\t note_on channel=0 note=59 velocity=100 time=58\n",
      "\t note_on channel=0 note=66 velocity=0 time=0\n",
      "\t note_on channel=0 note=68 velocity=0 time=0\n",
      "\t note_on channel=0 note=71 velocity=0 time=2\n",
      "\t note_on channel=0 note=59 velocity=0 time=28\n",
      "\t note_on channel=0 note=64 velocity=100 time=0\n",
      "control_change channel=0 control=64 value=0 time=26\n",
      "\t note_on channel=0 note=52 velocity=0 time=2\n",
      "\t note_on channel=0 note=50 velocity=100 time=1\n",
      "\t note_on channel=0 note=64 velocity=0 time=1\n",
      "\t note_on channel=0 note=66 velocity=100 time=0\n",
      "\t note_on channel=0 note=59 velocity=100 time=2\n",
      "control_change channel=0 control=64 value=127 time=3\n",
      "\t note_on channel=0 note=59 velocity=0 time=29\n",
      "\t note_on channel=0 note=66 velocity=0 time=0\n",
      "\t note_on channel=0 note=66 velocity=100 time=24\n",
      "\t note_on channel=0 note=59 velocity=100 time=30\n",
      "\t note_on channel=0 note=66 velocity=0 time=0\n",
      "\t note_on channel=0 note=66 velocity=100 time=0\n",
      "\t note_on channel=0 note=59 velocity=0 time=60\n",
      "\t note_on channel=0 note=66 velocity=0 time=0\n",
      "\t note_on channel=0 note=68 velocity=100 time=2\n",
      "\t note_on channel=0 note=59 velocity=100 time=60\n",
      "\t note_on channel=0 note=64 velocity=100 time=0\n",
      "\t note_on channel=0 note=68 velocity=0 time=0\n",
      "\t note_on channel=0 note=64 velocity=0 time=82\n",
      "\t note_on channel=0 note=59 velocity=0 time=8\n",
      "\t note_on channel=0 note=59 velocity=100 time=0\n",
      "\t note_on channel=0 note=59 velocity=0 time=60\n",
      "\t note_on channel=0 note=66 velocity=100 time=0\n",
      "\t note_on channel=0 note=71 velocity=100 time=0\n",
      "\t note_on channel=0 note=71 velocity=0 time=40\n",
      "\t note_on channel=0 note=66 velocity=0 time=3\n",
      "\t note_on channel=0 note=59 velocity=100 time=17\n",
      "\t note_on channel=0 note=64 velocity=100 time=27\n",
      "\t note_on channel=0 note=59 velocity=0 time=3\n",
      "\t note_on channel=0 note=64 velocity=0 time=27\n",
      "control_change channel=0 control=64 value=0 time=1\n",
      "\t note_on channel=0 note=50 velocity=0 time=1\n",
      "\t note_on channel=0 note=49 velocity=100 time=1\n",
      "\t note_on channel=0 note=59 velocity=100 time=0\n",
      "\t note_on channel=0 note=66 velocity=100 time=0\n",
      "control_change channel=0 control=64 value=127 time=5\n",
      "\t note_on channel=0 note=59 velocity=0 time=27\n",
      "\t note_on channel=0 note=66 velocity=0 time=28\n",
      "\t note_on channel=0 note=66 velocity=100 time=3\n",
      "\t note_on channel=0 note=59 velocity=100 time=27\n",
      "\t note_on channel=0 note=66 velocity=0 time=0\n",
      "\t note_on channel=0 note=66 velocity=100 time=0\n",
      "\t note_on channel=0 note=66 velocity=0 time=3\n",
      "\t note_on channel=0 note=59 velocity=0 time=47\n",
      "\t note_on channel=0 note=64 velocity=100 time=10\n",
      "\t note_on channel=0 note=59 velocity=100 time=30\n",
      "\t note_on channel=0 note=64 velocity=0 time=0\n",
      "\t note_on channel=0 note=64 velocity=100 time=0\n",
      "\t note_on channel=0 note=59 velocity=0 time=120\n",
      "\t note_on channel=0 note=63 velocity=100 time=0\n",
      "\t note_on channel=0 note=64 velocity=0 time=0\n",
      "\t note_on channel=0 note=63 velocity=0 time=60\n",
      "\t note_on channel=0 note=64 velocity=100 time=0\n",
      "\t note_on channel=0 note=64 velocity=0 time=30\n",
      "\t note_on channel=0 note=66 velocity=100 time=0\n",
      "\t note_on channel=0 note=66 velocity=0 time=51\n",
      "\t note_on channel=0 note=61 velocity=100 time=9\n",
      "\t note_on channel=0 note=57 velocity=100 time=1\n",
      "\t note_on channel=0 note=47 velocity=100 time=29\n",
      "\t note_on channel=0 note=49 velocity=0 time=0\n",
      "\t note_on channel=0 note=59 velocity=100 time=58\n",
      "\t note_on channel=0 note=61 velocity=0 time=2\n",
      "\t note_on channel=0 note=57 velocity=0 time=1\n",
      "\t note_on channel=0 note=59 velocity=0 time=57\n",
      "\t note_on channel=0 note=57 velocity=100 time=2\n",
      "\t note_on channel=0 note=64 velocity=100 time=0\n",
      "\t note_on channel=0 note=57 velocity=0 time=120\n",
      "\t note_on channel=0 note=57 velocity=100 time=0\n",
      "\t note_on channel=0 note=63 velocity=100 time=0\n",
      "\t note_on channel=0 note=64 velocity=0 time=0\n",
      "\t note_on channel=0 note=57 velocity=0 time=120\n",
      "\t note_on channel=0 note=59 velocity=100 time=0\n",
      "\t note_on channel=0 note=63 velocity=0 time=0\n",
      "\t note_on channel=0 note=47 velocity=0 time=53\n",
      "\t note_on channel=0 note=59 velocity=0 time=7\n",
      "\t note_on channel=0 note=64 velocity=100 time=0\n",
      "\t note_on channel=0 note=64 velocity=0 time=30\n",
      "\t note_on channel=0 note=66 velocity=100 time=0\n",
      "\t note_on channel=0 note=59 velocity=100 time=1\n",
      "\t note_on channel=0 note=40 velocity=100 time=29\n",
      "\t note_on channel=0 note=47 velocity=100 time=30\n",
      "\t note_on channel=0 note=68 velocity=100 time=29\n",
      "\t note_on channel=0 note=47 velocity=0 time=1\n",
      "\t note_on channel=0 note=56 velocity=100 time=0\n",
      "\t note_on channel=0 note=66 velocity=0 time=0\n",
      "\t note_on channel=0 note=68 velocity=0 time=59\n",
      "\t note_on channel=0 note=66 velocity=100 time=1\n",
      "\t note_on channel=0 note=64 velocity=100 time=30\n",
      "\t note_on channel=0 note=66 velocity=0 time=3\n",
      "\t note_on channel=0 note=64 velocity=0 time=87\n",
      "\t note_on channel=0 note=59 velocity=0 time=1\n",
      "\t note_on channel=0 note=68 velocity=100 time=0\n",
      "\t note_on channel=0 note=66 velocity=100 time=1\n",
      "\t note_on channel=0 note=71 velocity=100 time=1\n",
      "\t note_on channel=0 note=59 velocity=100 time=57\n",
      "\t note_on channel=0 note=66 velocity=0 time=2\n",
      "\t note_on channel=0 note=71 velocity=0 time=1\n",
      "\t note_on channel=0 note=68 velocity=0 time=1\n",
      "\t note_on channel=0 note=64 velocity=100 time=56\n",
      "\t note_on channel=0 note=59 velocity=0 time=3\n",
      "\t note_on channel=0 note=59 velocity=100 time=57\n",
      "\t note_on channel=0 note=64 velocity=0 time=0\n",
      "\t note_on channel=0 note=64 velocity=100 time=30\n",
      "\t note_on channel=0 note=59 velocity=0 time=1\n",
      "\t note_on channel=0 note=40 velocity=0 time=29\n",
      "\t note_on channel=0 note=42 velocity=100 time=0\n",
      "\t note_on channel=0 note=56 velocity=0 time=0\n",
      "\t note_on channel=0 note=64 velocity=0 time=0\n",
      "\t note_on channel=0 note=66 velocity=100 time=0\n",
      "\t note_on channel=0 note=62 velocity=100 time=3\n",
      "\t note_on channel=0 note=57 velocity=100 time=1\n",
      "control_change channel=0 control=64 value=0 time=1\n",
      "control_change channel=0 control=64 value=127 time=5\n",
      "\t note_on channel=0 note=66 velocity=0 time=49\n",
      "\t note_on channel=0 note=66 velocity=100 time=0\n",
      "\t note_on channel=0 note=66 velocity=0 time=1\n",
      "\t note_on channel=0 note=66 velocity=100 time=30\n",
      "\t note_on channel=0 note=66 velocity=0 time=60\n",
      "\t note_on channel=0 note=68 velocity=100 time=0\n",
      "\t note_on channel=0 note=57 velocity=0 time=30\n",
      "\t note_on channel=0 note=57 velocity=100 time=0\n",
      "\t note_on channel=0 note=62 velocity=0 time=0\n",
      "\t note_on channel=0 note=62 velocity=100 time=0\n",
      "\t note_on channel=0 note=68 velocity=0 time=0\n",
      "\t note_on channel=0 note=69 velocity=100 time=0\n",
      "\t note_on channel=0 note=62 velocity=0 time=3\n",
      "\t note_on channel=0 note=57 velocity=0 time=1\n",
      "\t note_on channel=0 note=57 velocity=100 time=176\n",
      "\t note_on channel=0 note=69 velocity=0 time=0\n",
      "\t note_on channel=0 note=62 velocity=100 time=2\n",
      "\t note_on channel=0 note=57 velocity=0 time=58\n",
      "\t note_on channel=0 note=59 velocity=100 time=1\n",
      "\t note_on channel=0 note=62 velocity=0 time=1\n",
      "\t note_on channel=0 note=64 velocity=100 time=27\n",
      "\t note_on channel=0 note=59 velocity=0 time=3\n",
      "\t note_on channel=0 note=64 velocity=0 time=27\n",
      "\t note_on channel=0 note=42 velocity=0 time=1\n",
      "\t note_on channel=0 note=48 velocity=100 time=0\n",
      "\t note_on channel=0 note=62 velocity=100 time=0\n",
      "\t note_on channel=0 note=64 velocity=100 time=0\n",
      "\t note_on channel=0 note=69 velocity=100 time=0\n",
      "control_change channel=0 control=64 value=0 time=3\n",
      "control_change channel=0 control=64 value=127 time=4\n",
      "\t note_on channel=0 note=62 velocity=0 time=52\n",
      "\t note_on channel=0 note=64 velocity=0 time=0\n",
      "\t note_on channel=0 note=69 velocity=0 time=0\n",
      "\t note_on channel=0 note=67 velocity=100 time=1\n",
      "\t note_on channel=0 note=67 velocity=0 time=29\n",
      "\t note_on channel=0 note=62 velocity=100 time=1\n",
      "\t note_on channel=0 note=64 velocity=100 time=0\n",
      "\t note_on channel=0 note=67 velocity=100 time=0\n",
      "\t note_on channel=0 note=62 velocity=0 time=59\n",
      "\t note_on channel=0 note=64 velocity=0 time=0\n",
      "\t note_on channel=0 note=67 velocity=0 time=0\n",
      "\t note_on channel=0 note=66 velocity=100 time=1\n",
      "\t note_on channel=0 note=66 velocity=0 time=29\n",
      "\t note_on channel=0 note=67 velocity=100 time=1\n",
      "\t note_on channel=0 note=67 velocity=0 time=29\n",
      "\t note_on channel=0 note=64 velocity=100 time=1\n",
      "\t note_on channel=0 note=64 velocity=0 time=29\n",
      "\t note_on channel=0 note=60 velocity=100 time=1\n",
      "\t note_on channel=0 note=64 velocity=100 time=0\n",
      "\t note_on channel=0 note=67 velocity=100 time=0\n",
      "\t note_on channel=0 note=60 velocity=0 time=59\n",
      "\t note_on channel=0 note=64 velocity=0 time=0\n",
      "\t note_on channel=0 note=67 velocity=0 time=30\n",
      "\t note_on channel=0 note=62 velocity=100 time=1\n",
      "\t note_on channel=0 note=62 velocity=0 time=29\n",
      "\t note_on channel=0 note=64 velocity=100 time=1\n",
      "\t note_on channel=0 note=66 velocity=100 time=30\n",
      "\t note_on channel=0 note=64 velocity=0 time=29\n",
      "\t note_on channel=0 note=66 velocity=0 time=0\n",
      "\t note_on channel=0 note=57 velocity=100 time=31\n",
      "\t note_on channel=0 note=64 velocity=100 time=0\n",
      "\t note_on channel=0 note=66 velocity=100 time=0\n",
      "\t note_on channel=0 note=47 velocity=100 time=30\n",
      "\t note_on channel=0 note=48 velocity=0 time=0\n",
      "control_change channel=0 control=64 value=0 time=15\n",
      "control_change channel=0 control=64 value=127 time=2\n",
      "\t note_on channel=0 note=57 velocity=0 time=103\n",
      "\t note_on channel=0 note=57 velocity=100 time=0\n",
      "\t note_on channel=0 note=64 velocity=0 time=0\n",
      "\t note_on channel=0 note=64 velocity=100 time=0\n",
      "\t note_on channel=0 note=66 velocity=0 time=0\n",
      "\t note_on channel=0 note=66 velocity=100 time=0\n",
      "\t note_on channel=0 note=47 velocity=0 time=60\n",
      "\t note_on channel=0 note=47 velocity=100 time=0\n",
      "\t note_on channel=0 note=47 velocity=0 time=60\n",
      "\t note_on channel=0 note=47 velocity=100 time=0\n",
      "\t note_on channel=0 note=57 velocity=0 time=0\n",
      "\t note_on channel=0 note=57 velocity=100 time=0\n",
      "\t note_on channel=0 note=63 velocity=100 time=0\n",
      "\t note_on channel=0 note=64 velocity=0 time=0\n",
      "\t note_on channel=0 note=66 velocity=0 time=0\n",
      "\t note_on channel=0 note=66 velocity=100 time=0\n",
      "\t note_on channel=0 note=57 velocity=0 time=120\n",
      "\t note_on channel=0 note=63 velocity=0 time=0\n",
      "\t note_on channel=0 note=66 velocity=0 time=0\n",
      "\t note_on channel=0 note=71 velocity=100 time=0\n",
      "control_change channel=0 control=64 value=0 time=110\n",
      "control_change channel=0 control=64 value=127 time=10\n",
      "\t note_on channel=0 note=40 velocity=100 time=0\n",
      "\t note_on channel=0 note=47 velocity=0 time=0\n",
      "\t note_on channel=0 note=66 velocity=100 time=0\n",
      "\t note_on channel=0 note=68 velocity=100 time=0\n",
      "\t note_on channel=0 note=71 velocity=0 time=0\n",
      "\t note_on channel=0 note=71 velocity=100 time=0\n",
      "\t note_on channel=0 note=66 velocity=0 time=59\n",
      "\t note_on channel=0 note=68 velocity=0 time=0\n",
      "\t note_on channel=0 note=71 velocity=0 time=0\n",
      "\t note_on channel=0 note=64 velocity=100 time=1\n",
      "\t note_on channel=0 note=64 velocity=0 time=60\n",
      "\t note_on channel=0 note=66 velocity=100 time=0\n",
      "\t note_on channel=0 note=68 velocity=100 time=0\n",
      "\t note_on channel=0 note=71 velocity=100 time=0\n",
      "\t note_on channel=0 note=66 velocity=0 time=29\n",
      "\t note_on channel=0 note=68 velocity=0 time=0\n",
      "\t note_on channel=0 note=59 velocity=100 time=1\n",
      "\t note_on channel=0 note=71 velocity=0 time=0\n",
      "\t note_on channel=0 note=59 velocity=0 time=29\n",
      "\t note_on channel=0 note=64 velocity=100 time=1\n",
      "\t note_on channel=0 note=64 velocity=0 time=29\n",
      "\t note_on channel=0 note=63 velocity=100 time=1\n",
      "\t note_on channel=0 note=63 velocity=0 time=29\n",
      "\t note_on channel=0 note=59 velocity=100 time=1\n",
      "\t note_on channel=0 note=66 velocity=100 time=0\n",
      "\t note_on channel=0 note=66 velocity=0 time=59\n",
      "\t note_on channel=0 note=59 velocity=0 time=1\n",
      "\t note_on channel=0 note=64 velocity=100 time=0\n",
      "\t note_on channel=0 note=64 velocity=0 time=29\n",
      "\t note_on channel=0 note=59 velocity=100 time=1\n",
      "\t note_on channel=0 note=64 velocity=100 time=0\n",
      "\t note_on channel=0 note=40 velocity=0 time=30\n",
      "\t note_on channel=0 note=51 velocity=100 time=0\n",
      "\t note_on channel=0 note=59 velocity=0 time=60\n",
      "\t note_on channel=0 note=63 velocity=100 time=0\n",
      "\t note_on channel=0 note=64 velocity=0 time=0\n",
      "\t note_on channel=0 note=63 velocity=0 time=29\n",
      "\t note_on channel=0 note=64 velocity=100 time=1\n",
      "\t note_on channel=0 note=49 velocity=100 time=30\n",
      "\t note_on channel=0 note=51 velocity=0 time=0\n",
      "\t note_on channel=0 note=59 velocity=100 time=0\n",
      "\t note_on channel=0 note=56 velocity=100 time=60\n",
      "\t note_on channel=0 note=59 velocity=0 time=0\n",
      "\t note_on channel=0 note=64 velocity=0 time=0\n",
      "\t note_on channel=0 note=56 velocity=0 time=60\n",
      "\t note_on channel=0 note=59 velocity=100 time=0\n",
      "\t note_on channel=0 note=64 velocity=100 time=0\n",
      "\t note_on channel=0 note=59 velocity=0 time=60\n",
      "\t note_on channel=0 note=64 velocity=0 time=0\n",
      "\t note_on channel=0 note=64 velocity=100 time=0\n",
      "\t note_on channel=0 note=63 velocity=100 time=30\n",
      "\t note_on channel=0 note=64 velocity=0 time=0\n",
      "\t note_on channel=0 note=59 velocity=100 time=30\n",
      "\t note_on channel=0 note=63 velocity=0 time=0\n",
      "\t note_on channel=0 note=64 velocity=100 time=0\n",
      "\t note_on channel=0 note=68 velocity=100 time=0\n",
      "\t note_on channel=0 note=68 velocity=0 time=32\n",
      "\t note_on channel=0 note=59 velocity=0 time=1\n",
      "\t note_on channel=0 note=64 velocity=0 time=26\n",
      "\t note_on channel=0 note=66 velocity=100 time=1\n",
      "\t note_on channel=0 note=59 velocity=100 time=28\n",
      "\t note_on channel=0 note=56 velocity=100 time=2\n",
      "\t note_on channel=0 note=64 velocity=100 time=0\n",
      "\t note_on channel=0 note=66 velocity=0 time=0\n",
      "\t note_on channel=0 note=47 velocity=100 time=30\n",
      "\t note_on channel=0 note=49 velocity=0 time=0\n",
      "\t note_on channel=0 note=59 velocity=0 time=58\n",
      "\t note_on channel=0 note=56 velocity=0 time=2\n",
      "\t note_on channel=0 note=64 velocity=0 time=0\n",
      "\t note_on channel=0 note=66 velocity=100 time=0\n",
      "\t note_on channel=0 note=66 velocity=0 time=30\n",
      "\t note_on channel=0 note=59 velocity=100 time=1\n",
      "\t note_on channel=0 note=61 velocity=100 time=0\n",
      "\t note_on channel=0 note=64 velocity=100 time=0\n",
      "\t note_on channel=0 note=45 velocity=100 time=29\n",
      "\t note_on channel=0 note=47 velocity=0 time=3\n",
      "control_change channel=0 control=64 value=0 time=2\n",
      "control_change channel=0 control=64 value=127 time=5\n",
      "\t note_on channel=0 note=57 velocity=100 time=50\n",
      "\t note_on channel=0 note=59 velocity=0 time=1\n",
      "\t note_on channel=0 note=61 velocity=0 time=0\n",
      "\t note_on channel=0 note=64 velocity=0 time=0\n",
      "\t note_on channel=0 note=59 velocity=100 time=57\n",
      "\t note_on channel=0 note=61 velocity=100 time=0\n",
      "\t note_on channel=0 note=68 velocity=100 time=0\n",
      "\t note_on channel=0 note=57 velocity=0 time=2\n",
      "\t note_on channel=0 note=64 velocity=100 time=0\n",
      "\t note_on channel=0 note=68 velocity=0 time=53\n",
      "\t note_on channel=0 note=61 velocity=0 time=1\n",
      "\t note_on channel=0 note=59 velocity=0 time=4\n",
      "\t note_on channel=0 note=64 velocity=0 time=2\n",
      "\t note_on channel=0 note=64 velocity=100 time=0\n",
      "\t note_on channel=0 note=64 velocity=0 time=27\n",
      "\t note_on channel=0 note=63 velocity=100 time=1\n",
      "\t note_on channel=0 note=63 velocity=0 time=30\n",
      "\t note_on channel=0 note=66 velocity=100 time=2\n",
      "\t note_on channel=0 note=64 velocity=100 time=60\n",
      "\t note_on channel=0 note=66 velocity=0 time=0\n",
      "\t note_on channel=0 note=54 velocity=100 time=30\n",
      "\t note_on channel=0 note=59 velocity=100 time=0\n",
      "\t note_on channel=0 note=64 velocity=0 time=0\n",
      "\t note_on channel=0 note=64 velocity=100 time=0\n",
      "\t note_on channel=0 note=44 velocity=100 time=30\n",
      "\t note_on channel=0 note=45 velocity=0 time=0\n",
      "\t note_on channel=0 note=54 velocity=0 time=60\n",
      "\t note_on channel=0 note=59 velocity=0 time=0\n",
      "\t note_on channel=0 note=64 velocity=0 time=0\n",
      "\t note_on channel=0 note=63 velocity=100 time=2\n",
      "\t note_on channel=0 note=57 velocity=100 time=28\n",
      "\t note_on channel=0 note=61 velocity=100 time=0\n",
      "\t note_on channel=0 note=63 velocity=0 time=2\n",
      "\t note_on channel=0 note=42 velocity=100 time=28\n",
      "\t note_on channel=0 note=44 velocity=0 time=3\n",
      "\t note_on channel=0 note=54 velocity=100 time=57\n",
      "\t note_on channel=0 note=57 velocity=0 time=0\n",
      "\t note_on channel=0 note=61 velocity=0 time=0\n",
      "\t note_on channel=0 note=54 velocity=0 time=60\n",
      "\t note_on channel=0 note=57 velocity=100 time=0\n",
      "\t note_on channel=0 note=61 velocity=100 time=0\n",
      "\t note_on channel=0 note=64 velocity=100 time=0\n",
      "\t note_on channel=0 note=57 velocity=0 time=60\n",
      "\t note_on channel=0 note=61 velocity=0 time=0\n",
      "\t note_on channel=0 note=64 velocity=0 time=0\n",
      "\t note_on channel=0 note=64 velocity=100 time=0\n",
      "\t note_on channel=0 note=42 velocity=0 time=10\n",
      "\t note_on channel=0 note=64 velocity=0 time=15\n",
      "\t note_on channel=0 note=63 velocity=100 time=5\n",
      "\t note_on channel=0 note=47 velocity=100 time=28\n",
      "\t note_on channel=0 note=61 velocity=100 time=0\n",
      "\t note_on channel=0 note=57 velocity=100 time=1\n",
      "\t note_on channel=0 note=63 velocity=0 time=1\n",
      "\t note_on channel=0 note=57 velocity=0 time=29\n",
      "\t note_on channel=0 note=61 velocity=0 time=27\n",
      "\t note_on channel=0 note=63 velocity=100 time=4\n",
      "\t note_on channel=0 note=57 velocity=100 time=30\n",
      "\t note_on channel=0 note=61 velocity=100 time=0\n",
      "\t note_on channel=0 note=63 velocity=0 time=0\n",
      "\t note_on channel=0 note=64 velocity=100 time=0\n",
      "\t note_on channel=0 note=57 velocity=0 time=60\n",
      "\t note_on channel=0 note=61 velocity=0 time=0\n",
      "\t note_on channel=0 note=61 velocity=100 time=0\n",
      "\t note_on channel=0 note=64 velocity=0 time=0\n",
      "\t note_on channel=0 note=64 velocity=100 time=0\n",
      "\t note_on channel=0 note=71 velocity=100 time=0\n",
      "\t note_on channel=0 note=61 velocity=0 time=60\n",
      "\t note_on channel=0 note=64 velocity=0 time=0\n",
      "\t note_on channel=0 note=64 velocity=100 time=0\n",
      "\t note_on channel=0 note=66 velocity=100 time=0\n",
      "\t note_on channel=0 note=68 velocity=100 time=0\n",
      "\t note_on channel=0 note=71 velocity=0 time=0\n",
      "\t note_on channel=0 note=47 velocity=0 time=18\n",
      "\t note_on channel=0 note=40 velocity=100 time=12\n",
      "\t note_on channel=0 note=59 velocity=100 time=60\n",
      "\t note_on channel=0 note=64 velocity=0 time=0\n",
      "\t note_on channel=0 note=66 velocity=0 time=0\n",
      "\t note_on channel=0 note=68 velocity=0 time=0\n",
      "\t note_on channel=0 note=59 velocity=0 time=60\n",
      "\t note_on channel=0 note=66 velocity=100 time=0\n",
      "\t note_on channel=0 note=68 velocity=100 time=0\n",
      "\t note_on channel=0 note=71 velocity=100 time=0\n",
      "\t note_on channel=0 note=66 velocity=0 time=29\n",
      "\t note_on channel=0 note=68 velocity=0 time=0\n",
      "\t note_on channel=0 note=71 velocity=0 time=0\n",
      "\t note_on channel=0 note=59 velocity=100 time=1\n",
      "\t note_on channel=0 note=59 velocity=0 time=30\n",
      "\t note_on channel=0 note=68 velocity=100 time=0\n",
      "\t note_on channel=0 note=68 velocity=0 time=29\n",
      "\t note_on channel=0 note=66 velocity=100 time=1\n",
      "\t note_on channel=0 note=66 velocity=0 time=29\n",
      "\t note_on channel=0 note=59 velocity=100 time=1\n",
      "\t note_on channel=0 note=69 velocity=100 time=0\n",
      "\t note_on channel=0 note=40 velocity=0 time=29\n",
      "\t note_on channel=0 note=59 velocity=0 time=31\n",
      "\t note_on channel=0 note=68 velocity=100 time=0\n",
      "\t note_on channel=0 note=69 velocity=0 time=0\n",
      "\t note_on channel=0 note=68 velocity=0 time=29\n",
      "\t note_on channel=0 note=59 velocity=100 time=1\n",
      "\t note_on channel=0 note=68 velocity=100 time=0\n",
      "\t note_on channel=0 note=51 velocity=100 time=30\n",
      "\t note_on channel=0 note=59 velocity=0 time=60\n",
      "\t note_on channel=0 note=66 velocity=100 time=0\n",
      "\t note_on channel=0 note=68 velocity=0 time=0\n",
      "\t note_on channel=0 note=66 velocity=0 time=29\n",
      "\t note_on channel=0 note=59 velocity=100 time=1\n",
      "\t note_on channel=0 note=64 velocity=100 time=0\n",
      "\t note_on channel=0 note=51 velocity=0 time=29\n",
      "\t note_on channel=0 note=49 velocity=100 time=1\n",
      "\t note_on channel=0 note=59 velocity=0 time=60\n",
      "\t note_on channel=0 note=59 velocity=100 time=0\n",
      "\t note_on channel=0 note=64 velocity=0 time=0\n",
      "\t note_on channel=0 note=59 velocity=0 time=60\n",
      "\t note_on channel=0 note=59 velocity=100 time=0\n",
      "\t note_on channel=0 note=64 velocity=100 time=0\n",
      "\t note_on channel=0 note=68 velocity=100 time=0\n",
      "\t note_on channel=0 note=59 velocity=0 time=60\n",
      "\t note_on channel=0 note=64 velocity=0 time=0\n",
      "\t note_on channel=0 note=68 velocity=0 time=0\n",
      "\t note_on channel=0 note=68 velocity=100 time=0\n",
      "\t note_on channel=0 note=68 velocity=0 time=29\n",
      "\t note_on channel=0 note=66 velocity=100 time=1\n",
      "\t note_on channel=0 note=49 velocity=0 time=29\n",
      "\t note_on channel=0 note=66 velocity=0 time=0\n",
      "\t note_on channel=0 note=47 velocity=100 time=1\n",
      "\t note_on channel=0 note=64 velocity=100 time=0\n",
      "\t note_on channel=0 note=68 velocity=100 time=0\n",
      "\t note_on channel=0 note=73 velocity=100 time=0\n",
      "\t note_on channel=0 note=64 velocity=0 time=60\n",
      "\t note_on channel=0 note=68 velocity=0 time=0\n",
      "\t note_on channel=0 note=68 velocity=100 time=0\n",
      "\t note_on channel=0 note=73 velocity=0 time=0\n",
      "\t note_on channel=0 note=68 velocity=0 time=29\n",
      "\t note_on channel=0 note=59 velocity=100 time=1\n",
      "\t note_on channel=0 note=64 velocity=100 time=0\n",
      "\t note_on channel=0 note=68 velocity=100 time=0\n",
      "\t note_on channel=0 note=47 velocity=0 time=89\n",
      "\t note_on channel=0 note=59 velocity=0 time=1\n",
      "\t note_on channel=0 note=64 velocity=0 time=0\n",
      "\t note_on channel=0 note=68 velocity=0 time=0\n",
      "\t note_on channel=0 note=71 velocity=100 time=0\n",
      "\t note_on channel=0 note=71 velocity=0 time=29\n",
      "\t note_on channel=0 note=59 velocity=100 time=1\n",
      "\t note_on channel=0 note=61 velocity=100 time=0\n",
      "\t note_on channel=0 note=64 velocity=100 time=0\n",
      "\t note_on channel=0 note=45 velocity=100 time=30\n",
      "control_change channel=0 control=64 value=0 time=4\n",
      "control_change channel=0 control=64 value=127 time=7\n",
      "\t note_on channel=0 note=57 velocity=100 time=49\n",
      "\t note_on channel=0 note=59 velocity=0 time=0\n",
      "\t note_on channel=0 note=61 velocity=0 time=0\n",
      "\t note_on channel=0 note=64 velocity=0 time=0\n",
      "\t note_on channel=0 note=57 velocity=0 time=59\n",
      "\t note_on channel=0 note=59 velocity=100 time=1\n",
      "\t note_on channel=0 note=61 velocity=100 time=0\n",
      "\t note_on channel=0 note=64 velocity=100 time=0\n",
      "\t note_on channel=0 note=59 velocity=0 time=59\n",
      "\t note_on channel=0 note=61 velocity=0 time=0\n",
      "\t note_on channel=0 note=64 velocity=0 time=0\n",
      "\t note_on channel=0 note=64 velocity=100 time=1\n",
      "\t note_on channel=0 note=64 velocity=0 time=29\n",
      "\t note_on channel=0 note=63 velocity=100 time=1\n",
      "\t note_on channel=0 note=63 velocity=0 time=29\n",
      "\t note_on channel=0 note=66 velocity=100 time=1\n",
      "\t note_on channel=0 note=66 velocity=0 time=59\n",
      "\t note_on channel=0 note=59 velocity=100 time=1\n",
      "\t note_on channel=0 note=64 velocity=100 time=0\n",
      "\t note_on channel=0 note=59 velocity=0 time=29\n",
      "\t note_on channel=0 note=64 velocity=0 time=0\n",
      "\t note_on channel=0 note=59 velocity=100 time=1\n",
      "\t note_on channel=0 note=64 velocity=100 time=0\n",
      "\t note_on channel=0 note=44 velocity=100 time=30\n",
      "\t note_on channel=0 note=45 velocity=0 time=0\n",
      "\t note_on channel=0 note=59 velocity=0 time=60\n",
      "\t note_on channel=0 note=64 velocity=0 time=0\n",
      "\t note_on channel=0 note=66 velocity=100 time=0\n",
      "\t note_on channel=0 note=66 velocity=0 time=29\n",
      "\t note_on channel=0 note=57 velocity=100 time=1\n",
      "\t note_on channel=0 note=64 velocity=100 time=0\n",
      "control_change channel=0 control=64 value=0 time=19\n",
      "control_change channel=0 control=64 value=127 time=8\n",
      "\t note_on channel=0 note=42 velocity=100 time=3\n",
      "\t note_on channel=0 note=44 velocity=0 time=0\n",
      "\t note_on channel=0 note=54 velocity=100 time=60\n",
      "\t note_on channel=0 note=57 velocity=0 time=0\n",
      "\t note_on channel=0 note=64 velocity=0 time=0\n",
      "\t note_on channel=0 note=54 velocity=0 time=59\n",
      "\t note_on channel=0 note=57 velocity=100 time=1\n",
      "\t note_on channel=0 note=64 velocity=100 time=0\n",
      "\t note_on channel=0 note=69 velocity=100 time=0\n",
      "\t note_on channel=0 note=57 velocity=0 time=59\n",
      "\t note_on channel=0 note=64 velocity=0 time=0\n",
      "\t note_on channel=0 note=69 velocity=0 time=0\n",
      "\t note_on channel=0 note=64 velocity=100 time=1\n",
      "\t note_on channel=0 note=64 velocity=0 time=29\n",
      "\t note_on channel=0 note=63 velocity=100 time=1\n",
      "\t note_on channel=0 note=42 velocity=0 time=29\n",
      "\t note_on channel=0 note=63 velocity=0 time=0\n",
      "\t note_on channel=0 note=47 velocity=100 time=1\n",
      "\t note_on channel=0 note=57 velocity=100 time=0\n",
      "\t note_on channel=0 note=64 velocity=100 time=0\n",
      "\t note_on channel=0 note=68 velocity=100 time=0\n",
      "\t note_on channel=0 note=57 velocity=0 time=59\n",
      "\t note_on channel=0 note=64 velocity=0 time=0\n",
      "\t note_on channel=0 note=68 velocity=0 time=0\n",
      "\t note_on channel=0 note=66 velocity=100 time=1\n",
      "\t note_on channel=0 note=66 velocity=0 time=29\n",
      "\t note_on channel=0 note=57 velocity=100 time=1\n",
      "\t note_on channel=0 note=64 velocity=100 time=0\n",
      "\t note_on channel=0 note=57 velocity=0 time=89\n",
      "\t note_on channel=0 note=64 velocity=0 time=0\n",
      "\t note_on channel=0 note=66 velocity=100 time=1\n",
      "\t note_on channel=0 note=66 velocity=0 time=29\n",
      "\t note_on channel=0 note=59 velocity=100 time=1\n",
      "\t note_on channel=0 note=68 velocity=100 time=0\n",
      "\t note_on channel=0 note=47 velocity=0 time=30\n",
      "\t note_on channel=0 note=52 velocity=100 time=0\n",
      "\t note_on channel=0 note=66 velocity=100 time=60\n",
      "\t note_on channel=0 note=68 velocity=0 time=0\n",
      "\t note_on channel=0 note=66 velocity=0 time=29\n",
      "\t note_on channel=0 note=64 velocity=100 time=1\n",
      "\t note_on channel=0 note=64 velocity=0 time=60\n",
      "\t note_on channel=0 note=71 velocity=100 time=0\n",
      "\t note_on channel=0 note=71 velocity=0 time=29\n",
      "\t note_on channel=0 note=76 velocity=100 time=1\n",
      "\t note_on channel=0 note=76 velocity=0 time=29\n",
      "\t note_on channel=0 note=75 velocity=100 time=1\n",
      "\t note_on channel=0 note=75 velocity=0 time=29\n",
      "\t note_on channel=0 note=59 velocity=0 time=1\n",
      "\t note_on channel=0 note=78 velocity=100 time=0\n",
      "\t note_on channel=0 note=76 velocity=100 time=60\n",
      "\t note_on channel=0 note=78 velocity=0 time=0\n",
      "\t note_on channel=0 note=76 velocity=0 time=29\n",
      "\t note_on channel=0 note=76 velocity=100 time=1\n",
      "\t note_on channel=0 note=52 velocity=0 time=30\n",
      "\t note_on channel=0 note=63 velocity=100 time=0\n",
      "\t note_on channel=0 note=71 velocity=100 time=30\n",
      "\t note_on channel=0 note=76 velocity=0 time=0\n",
      "\t note_on channel=0 note=71 velocity=0 time=30\n",
      "\t note_on channel=0 note=75 velocity=100 time=0\n",
      "\t note_on channel=0 note=75 velocity=0 time=29\n",
      "\t note_on channel=0 note=76 velocity=100 time=1\n",
      "control_change channel=0 control=64 value=0 time=14\n",
      "control_change channel=0 control=64 value=127 time=14\n",
      "\t note_on channel=0 note=63 velocity=0 time=1\n",
      "\t note_on channel=0 note=61 velocity=100 time=1\n",
      "\t note_on channel=0 note=61 velocity=0 time=59\n",
      "\t note_on channel=0 note=63 velocity=100 time=1\n",
      "\t note_on channel=0 note=63 velocity=0 time=59\n",
      "\t note_on channel=0 note=64 velocity=100 time=1\n",
      "\t note_on channel=0 note=76 velocity=0 time=60\n",
      "\t note_on channel=0 note=76 velocity=100 time=0\n",
      "\t note_on channel=0 note=64 velocity=0 time=29\n",
      "\t note_on channel=0 note=76 velocity=0 time=0\n",
      "\t note_on channel=0 note=59 velocity=100 time=1\n",
      "\t note_on channel=0 note=75 velocity=100 time=0\n",
      "\t note_on channel=0 note=59 velocity=0 time=29\n",
      "\t note_on channel=0 note=75 velocity=0 time=0\n",
      "\t note_on channel=0 note=47 velocity=100 time=1\n",
      "\t note_on channel=0 note=57 velocity=100 time=0\n",
      "\t note_on channel=0 note=64 velocity=100 time=0\n",
      "\t note_on channel=0 note=73 velocity=100 time=0\n",
      "\t note_on channel=0 note=47 velocity=0 time=119\n",
      "\t note_on channel=0 note=57 velocity=0 time=1\n",
      "\t note_on channel=0 note=57 velocity=100 time=0\n",
      "\t note_on channel=0 note=64 velocity=0 time=0\n",
      "\t note_on channel=0 note=73 velocity=0 time=0\n",
      "\t note_on channel=0 note=57 velocity=0 time=29\n",
      "\t note_on channel=0 note=56 velocity=100 time=1\n",
      "\t note_on channel=0 note=64 velocity=100 time=0\n",
      "\t note_on channel=0 note=71 velocity=100 time=0\n",
      "\t note_on channel=0 note=56 velocity=0 time=29\n",
      "\t note_on channel=0 note=64 velocity=0 time=0\n",
      "\t note_on channel=0 note=71 velocity=0 time=0\n",
      "\t note_on channel=0 note=54 velocity=100 time=1\n",
      "\t note_on channel=0 note=52 velocity=100 time=30\n",
      "\t note_on channel=0 note=68 velocity=100 time=0\n",
      "\t note_on channel=0 note=52 velocity=0 time=29\n",
      "\t note_on channel=0 note=54 velocity=0 time=0\n",
      "\t note_on channel=0 note=68 velocity=0 time=0\n",
      "\t note_on channel=0 note=59 velocity=100 time=1\n",
      "\t note_on channel=0 note=64 velocity=100 time=60\n",
      "\t note_on channel=0 note=59 velocity=0 time=29\n",
      "\t note_on channel=0 note=64 velocity=0 time=0\n",
      "\t note_on channel=0 note=66 velocity=100 time=31\n",
      "\t note_on channel=0 note=68 velocity=100 time=0\n",
      "\t note_on channel=0 note=71 velocity=100 time=0\n",
      "\t note_on channel=0 note=71 velocity=0 time=29\n",
      "\t note_on channel=0 note=66 velocity=0 time=30\n",
      "\t note_on channel=0 note=68 velocity=0 time=0\n",
      "\t note_on channel=0 note=64 velocity=100 time=1\n",
      "\t note_on channel=0 note=64 velocity=0 time=59\n",
      "\t note_on channel=0 note=66 velocity=100 time=1\n",
      "\t note_on channel=0 note=68 velocity=100 time=0\n",
      "\t note_on channel=0 note=71 velocity=100 time=0\n",
      "\t note_on channel=0 note=66 velocity=0 time=59\n",
      "\t note_on channel=0 note=68 velocity=0 time=0\n",
      "\t note_on channel=0 note=71 velocity=0 time=0\n",
      "\t note_on channel=0 note=64 velocity=100 time=1\n",
      "\t note_on channel=0 note=64 velocity=0 time=59\n",
      "\t note_on channel=0 note=66 velocity=100 time=1\n",
      "\t note_on channel=0 note=68 velocity=100 time=0\n",
      "\t note_on channel=0 note=71 velocity=100 time=0\n",
      "\t note_on channel=0 note=66 velocity=0 time=29\n",
      "\t note_on channel=0 note=68 velocity=0 time=0\n",
      "\t note_on channel=0 note=71 velocity=0 time=0\n",
      "\t note_on channel=0 note=59 velocity=100 time=31\n",
      "\t note_on channel=0 note=59 velocity=0 time=29\n",
      "\t note_on channel=0 note=64 velocity=100 time=1\n",
      "control_change channel=0 control=64 value=0 time=26\n",
      "\t note_on channel=0 note=64 velocity=0 time=3\n",
      "\t note_on channel=0 note=50 velocity=100 time=1\n",
      "\t note_on channel=0 note=66 velocity=100 time=0\n",
      "\t note_on channel=0 note=59 velocity=100 time=2\n",
      "control_change channel=0 control=64 value=127 time=3\n",
      "\t note_on channel=0 note=59 velocity=0 time=29\n",
      "\t note_on channel=0 note=66 velocity=0 time=0\n",
      "\t note_on channel=0 note=66 velocity=100 time=24\n",
      "\t note_on channel=0 note=66 velocity=0 time=14\n",
      "\t note_on channel=0 note=59 velocity=100 time=16\n",
      "\t note_on channel=0 note=66 velocity=100 time=0\n",
      "\t note_on channel=0 note=59 velocity=0 time=58\n",
      "\t note_on channel=0 note=68 velocity=100 time=26\n",
      "\t note_on channel=0 note=66 velocity=0 time=6\n",
      "\t note_on channel=0 note=68 velocity=0 time=23\n",
      "\t note_on channel=0 note=59 velocity=100 time=3\n",
      "\t note_on channel=0 note=64 velocity=100 time=1\n",
      "\t note_on channel=0 note=59 velocity=0 time=51\n",
      "\t note_on channel=0 note=64 velocity=0 time=31\n",
      "\t note_on channel=0 note=59 velocity=100 time=11\n",
      "\t note_on channel=0 note=66 velocity=100 time=59\n",
      "\t note_on channel=0 note=71 velocity=100 time=1\n",
      "\t note_on channel=0 note=59 velocity=0 time=8\n",
      "\t note_on channel=0 note=71 velocity=0 time=32\n",
      "\t note_on channel=0 note=66 velocity=0 time=2\n",
      "\t note_on channel=0 note=50 velocity=0 time=19\n",
      "\t note_on channel=0 note=59 velocity=100 time=1\n",
      "\t note_on channel=0 note=64 velocity=100 time=27\n",
      "\t note_on channel=0 note=59 velocity=0 time=10\n",
      "\t note_on channel=0 note=64 velocity=0 time=14\n",
      "\t note_on channel=0 note=49 velocity=100 time=6\n",
      "control_change channel=0 control=64 value=0 time=1\n",
      "\t note_on channel=0 note=66 velocity=100 time=1\n",
      "\t note_on channel=0 note=59 velocity=100 time=1\n",
      "control_change channel=0 control=64 value=127 time=5\n",
      "\t note_on channel=0 note=59 velocity=0 time=27\n",
      "\t note_on channel=0 note=66 velocity=0 time=8\n",
      "\t note_on channel=0 note=66 velocity=100 time=23\n",
      "\t note_on channel=0 note=66 velocity=0 time=13\n",
      "\t note_on channel=0 note=66 velocity=100 time=15\n",
      "\t note_on channel=0 note=59 velocity=100 time=2\n",
      "\t note_on channel=0 note=59 velocity=0 time=50\n",
      "\t note_on channel=0 note=64 velocity=100 time=39\n",
      "\t note_on channel=0 note=66 velocity=0 time=2\n",
      "\t note_on channel=0 note=64 velocity=0 time=8\n",
      "\t note_on channel=0 note=59 velocity=100 time=17\n",
      "\t note_on channel=0 note=64 velocity=100 time=2\n",
      "\t note_on channel=0 note=59 velocity=0 time=62\n",
      "\t note_on channel=0 note=63 velocity=100 time=38\n",
      "\t note_on channel=0 note=64 velocity=0 time=2\n",
      "\t note_on channel=0 note=63 velocity=0 time=43\n",
      "\t note_on channel=0 note=64 velocity=100 time=4\n",
      "\t note_on channel=0 note=66 velocity=100 time=33\n",
      "\t note_on channel=0 note=64 velocity=0 time=5\n",
      "\t note_on channel=0 note=66 velocity=0 time=46\n",
      "\t note_on channel=0 note=61 velocity=100 time=4\n",
      "\t note_on channel=0 note=57 velocity=100 time=3\n",
      "\t note_on channel=0 note=47 velocity=100 time=31\n",
      "\t note_on channel=0 note=49 velocity=0 time=4\n",
      "\t note_on channel=0 note=57 velocity=0 time=6\n",
      "\t note_on channel=0 note=61 velocity=0 time=17\n",
      "\t note_on channel=0 note=59 velocity=100 time=29\n",
      "\t note_on channel=0 note=59 velocity=0 time=19\n",
      "\t note_on channel=0 note=57 velocity=100 time=43\n",
      "\t note_on channel=0 note=64 velocity=100 time=0\n",
      "\t note_on channel=0 note=57 velocity=0 time=59\n",
      "\t note_on channel=0 note=64 velocity=0 time=15\n",
      "\t note_on channel=0 note=57 velocity=100 time=46\n",
      "\t note_on channel=0 note=63 velocity=100 time=0\n",
      "\t note_on channel=0 note=57 velocity=0 time=56\n",
      "\t note_on channel=0 note=63 velocity=0 time=7\n",
      "\t note_on channel=0 note=59 velocity=100 time=60\n",
      "\t note_on channel=0 note=59 velocity=0 time=43\n",
      "\t note_on channel=0 note=47 velocity=0 time=9\n",
      "\t note_on channel=0 note=64 velocity=100 time=5\n",
      "\t note_on channel=0 note=64 velocity=0 time=21\n",
      "\t note_on channel=0 note=59 velocity=100 time=10\n",
      "\t note_on channel=0 note=66 velocity=100 time=0\n",
      "\t note_on channel=0 note=40 velocity=100 time=29\n",
      "\t note_on channel=0 note=66 velocity=0 time=23\n",
      "\t note_on channel=0 note=47 velocity=100 time=2\n",
      "\t note_on channel=0 note=40 velocity=0 time=1\n",
      "\t note_on channel=0 note=59 velocity=0 time=28\n",
      "\t note_on channel=0 note=47 velocity=0 time=1\n",
      "\t note_on channel=0 note=56 velocity=100 time=3\n",
      "\t note_on channel=0 note=68 velocity=100 time=1\n",
      "\t note_on channel=0 note=66 velocity=100 time=55\n",
      "\t note_on channel=0 note=68 velocity=0 time=2\n",
      "\t note_on channel=0 note=64 velocity=100 time=27\n",
      "\t note_on channel=0 note=66 velocity=0 time=4\n",
      "\t note_on channel=0 note=64 velocity=0 time=47\n",
      "\t note_on channel=0 note=68 velocity=100 time=47\n",
      "\t note_on channel=0 note=66 velocity=100 time=1\n",
      "\t note_on channel=0 note=71 velocity=100 time=1\n",
      "\t note_on channel=0 note=66 velocity=0 time=50\n",
      "\t note_on channel=0 note=59 velocity=100 time=7\n",
      "\t note_on channel=0 note=68 velocity=0 time=4\n",
      "\t note_on channel=0 note=71 velocity=0 time=38\n",
      "\t note_on channel=0 note=64 velocity=100 time=18\n",
      "\t note_on channel=0 note=59 velocity=0 time=3\n",
      "\t note_on channel=0 note=64 velocity=0 time=36\n",
      "\t note_on channel=0 note=56 velocity=0 time=18\n",
      "\t note_on channel=0 note=59 velocity=100 time=3\n",
      "\t note_on channel=0 note=64 velocity=100 time=28\n",
      "\t note_on channel=0 note=59 velocity=0 time=3\n",
      "\t note_on channel=0 note=64 velocity=0 time=6\n",
      "\t note_on channel=0 note=42 velocity=100 time=23\n",
      "\t note_on channel=0 note=57 velocity=100 time=0\n",
      "\t note_on channel=0 note=66 velocity=100 time=0\n",
      "\t note_on channel=0 note=62 velocity=100 time=3\n",
      "control_change channel=0 control=64 value=0 time=2\n",
      "control_change channel=0 control=64 value=127 time=5\n",
      "\t note_on channel=0 note=66 velocity=0 time=31\n",
      "\t note_on channel=0 note=66 velocity=100 time=19\n",
      "\t note_on channel=0 note=66 velocity=0 time=17\n",
      "\t note_on channel=0 note=66 velocity=100 time=13\n",
      "\t note_on channel=0 note=62 velocity=0 time=37\n",
      "\t note_on channel=0 note=66 velocity=0 time=2\n",
      "\t note_on channel=0 note=68 velocity=100 time=21\n",
      "\t note_on channel=0 note=57 velocity=0 time=5\n",
      "\t note_on channel=0 note=68 velocity=0 time=7\n",
      "\t note_on channel=0 note=57 velocity=100 time=18\n",
      "\t note_on channel=0 note=62 velocity=100 time=0\n",
      "\t note_on channel=0 note=69 velocity=100 time=0\n",
      "\t note_on channel=0 note=57 velocity=0 time=84\n",
      "\t note_on channel=0 note=62 velocity=0 time=1\n",
      "\t note_on channel=0 note=69 velocity=0 time=50\n",
      "\t note_on channel=0 note=57 velocity=100 time=46\n",
      "\t note_on channel=0 note=62 velocity=100 time=1\n",
      "\t note_on channel=0 note=57 velocity=0 time=30\n",
      "\t note_on channel=0 note=62 velocity=0 time=23\n",
      "\t note_on channel=0 note=42 velocity=0 time=4\n",
      "\t note_on channel=0 note=59 velocity=100 time=2\n",
      "\t note_on channel=0 note=64 velocity=100 time=28\n",
      "\t note_on channel=0 note=59 velocity=0 time=3\n",
      "\t note_on channel=0 note=64 velocity=0 time=6\n",
      "control_change channel=0 control=64 value=0 time=25\n",
      "\t note_on channel=0 note=48 velocity=100 time=0\n",
      "\t note_on channel=0 note=69 velocity=100 time=1\n",
      "\t note_on channel=0 note=62 velocity=100 time=1\n",
      "\t note_on channel=0 note=64 velocity=100 time=0\n",
      "control_change channel=0 control=64 value=127 time=2\n",
      "\t note_on channel=0 note=62 velocity=0 time=39\n",
      "\t note_on channel=0 note=69 velocity=0 time=5\n",
      "\t note_on channel=0 note=64 velocity=0 time=1\n",
      "\t note_on channel=0 note=67 velocity=100 time=11\n",
      "\t note_on channel=0 note=67 velocity=0 time=13\n",
      "\t note_on channel=0 note=62 velocity=100 time=14\n",
      "\t note_on channel=0 note=67 velocity=100 time=0\n",
      "\t note_on channel=0 note=64 velocity=100 time=1\n",
      "\t note_on channel=0 note=62 velocity=0 time=57\n",
      "\t note_on channel=0 note=66 velocity=100 time=2\n",
      "\t note_on channel=0 note=67 velocity=0 time=3\n",
      "\t note_on channel=0 note=64 velocity=0 time=3\n",
      "\t note_on channel=0 note=67 velocity=100 time=22\n",
      "\t note_on channel=0 note=66 velocity=0 time=6\n",
      "\t note_on channel=0 note=64 velocity=100 time=22\n",
      "\t note_on channel=0 note=67 velocity=0 time=2\n",
      "\t note_on channel=0 note=64 velocity=0 time=14\n",
      "\t note_on channel=0 note=64 velocity=100 time=16\n",
      "\t note_on channel=0 note=60 velocity=100 time=1\n",
      "\t note_on channel=0 note=67 velocity=100 time=0\n",
      "\t note_on channel=0 note=60 velocity=0 time=56\n",
      "\t note_on channel=0 note=64 velocity=0 time=12\n",
      "\t note_on channel=0 note=62 velocity=100 time=23\n",
      "\t note_on channel=0 note=67 velocity=0 time=11\n",
      "\t note_on channel=0 note=62 velocity=0 time=19\n",
      "\t note_on channel=0 note=64 velocity=100 time=0\n",
      "\t note_on channel=0 note=64 velocity=0 time=30\n",
      "\t note_on channel=0 note=66 velocity=100 time=0\n",
      "\t note_on channel=0 note=66 velocity=0 time=31\n",
      "\t note_on channel=0 note=57 velocity=100 time=29\n",
      "\t note_on channel=0 note=64 velocity=100 time=0\n",
      "\t note_on channel=0 note=66 velocity=100 time=0\n",
      "\t note_on channel=0 note=48 velocity=0 time=6\n",
      "\t note_on channel=0 note=47 velocity=100 time=24\n",
      "control_change channel=0 control=64 value=0 time=15\n",
      "control_change channel=0 control=64 value=127 time=2\n",
      "\t note_on channel=0 note=57 velocity=0 time=2\n",
      "\t note_on channel=0 note=64 velocity=0 time=19\n",
      "\t note_on channel=0 note=66 velocity=0 time=3\n",
      "\t note_on channel=0 note=57 velocity=100 time=79\n",
      "\t note_on channel=0 note=64 velocity=100 time=0\n",
      "\t note_on channel=0 note=66 velocity=100 time=0\n",
      "\t note_on channel=0 note=47 velocity=0 time=28\n",
      "\t note_on channel=0 note=47 velocity=100 time=32\n",
      "\t note_on channel=0 note=64 velocity=0 time=3\n",
      "\t note_on channel=0 note=57 velocity=0 time=1\n",
      "\t note_on channel=0 note=66 velocity=0 time=2\n",
      "\t note_on channel=0 note=47 velocity=0 time=5\n",
      "\t note_on channel=0 note=47 velocity=100 time=49\n",
      "\t note_on channel=0 note=57 velocity=100 time=0\n",
      "\t note_on channel=0 note=63 velocity=100 time=0\n",
      "\t note_on channel=0 note=66 velocity=100 time=0\n",
      "\t note_on channel=0 note=57 velocity=0 time=38\n",
      "\t note_on channel=0 note=63 velocity=0 time=20\n",
      "\t note_on channel=0 note=66 velocity=0 time=3\n",
      "\t note_on channel=0 note=71 velocity=100 time=56\n",
      "\t note_on channel=0 note=71 velocity=0 time=62\n",
      "\t note_on channel=0 note=47 velocity=0 time=3\n",
      "control_change channel=0 control=64 value=0 time=48\n",
      "\t note_on channel=0 note=40 velocity=100 time=6\n",
      "\t note_on channel=0 note=66 velocity=100 time=3\n",
      "control_change channel=0 control=64 value=127 time=1\n",
      "\t note_on channel=0 note=68 velocity=100 time=0\n",
      "\t note_on channel=0 note=71 velocity=100 time=0\n",
      "\t note_on channel=0 note=66 velocity=0 time=48\n",
      "\t note_on channel=0 note=71 velocity=0 time=3\n",
      "\t note_on channel=0 note=68 velocity=0 time=7\n",
      "\t note_on channel=0 note=64 velocity=100 time=2\n",
      "\t note_on channel=0 note=64 velocity=0 time=33\n",
      "\t note_on channel=0 note=66 velocity=100 time=27\n",
      "\t note_on channel=0 note=68 velocity=100 time=0\n",
      "\t note_on channel=0 note=71 velocity=100 time=0\n",
      "\t note_on channel=0 note=71 velocity=0 time=13\n",
      "\t note_on channel=0 note=66 velocity=0 time=1\n",
      "\t note_on channel=0 note=68 velocity=0 time=0\n",
      "\t note_on channel=0 note=59 velocity=100 time=16\n",
      "\t note_on channel=0 note=64 velocity=100 time=30\n",
      "\t note_on channel=0 note=59 velocity=0 time=9\n",
      "\t note_on channel=0 note=63 velocity=100 time=14\n",
      "\t note_on channel=0 note=64 velocity=0 time=5\n",
      "\t note_on channel=0 note=63 velocity=0 time=29\n",
      "\t note_on channel=0 note=59 velocity=100 time=3\n",
      "\t note_on channel=0 note=66 velocity=100 time=0\n",
      "\t note_on channel=0 note=59 velocity=0 time=38\n",
      "\t note_on channel=0 note=66 velocity=0 time=19\n",
      "\t note_on channel=0 note=64 velocity=100 time=5\n",
      "\t note_on channel=0 note=40 velocity=0 time=2\n",
      "\t note_on channel=0 note=64 velocity=0 time=9\n",
      "\t note_on channel=0 note=59 velocity=100 time=17\n",
      "\t note_on channel=0 note=64 velocity=100 time=0\n",
      "\t note_on channel=0 note=51 velocity=100 time=30\n",
      "\t note_on channel=0 note=64 velocity=0 time=0\n",
      "\t note_on channel=0 note=59 velocity=0 time=10\n",
      "\t note_on channel=0 note=63 velocity=100 time=50\n",
      "\t note_on channel=0 note=63 velocity=0 time=28\n",
      "\t note_on channel=0 note=64 velocity=100 time=2\n",
      "\t note_on channel=0 note=49 velocity=100 time=30\n",
      "\t note_on channel=0 note=51 velocity=0 time=0\n",
      "\t note_on channel=0 note=59 velocity=100 time=0\n",
      "\t note_on channel=0 note=64 velocity=0 time=4\n",
      "\t note_on channel=0 note=59 velocity=0 time=28\n",
      "\t note_on channel=0 note=56 velocity=100 time=28\n",
      "\t note_on channel=0 note=56 velocity=0 time=59\n",
      "\t note_on channel=0 note=59 velocity=100 time=1\n",
      "\t note_on channel=0 note=64 velocity=100 time=0\n",
      "\t note_on channel=0 note=59 velocity=0 time=29\n",
      "\t note_on channel=0 note=64 velocity=0 time=0\n",
      "\t note_on channel=0 note=64 velocity=100 time=31\n",
      "\t note_on channel=0 note=64 velocity=0 time=29\n",
      "\t note_on channel=0 note=63 velocity=100 time=1\n",
      "\t note_on channel=0 note=63 velocity=0 time=29\n",
      "\t note_on channel=0 note=59 velocity=100 time=1\n",
      "\t note_on channel=0 note=64 velocity=100 time=0\n",
      "\t note_on channel=0 note=68 velocity=100 time=0\n",
      "\t note_on channel=0 note=59 velocity=0 time=29\n",
      "\t note_on channel=0 note=68 velocity=0 time=0\n",
      "\t note_on channel=0 note=49 velocity=0 time=30\n",
      "\t note_on channel=0 note=64 velocity=0 time=0\n",
      "\t note_on channel=0 note=66 velocity=100 time=1\n",
      "\t note_on channel=0 note=66 velocity=0 time=29\n",
      "\t note_on channel=0 note=56 velocity=100 time=1\n",
      "\t note_on channel=0 note=59 velocity=100 time=0\n",
      "\t note_on channel=0 note=64 velocity=100 time=0\n",
      "\t note_on channel=0 note=59 velocity=0 time=29\n",
      "\t note_on channel=0 note=64 velocity=0 time=0\n",
      "\t note_on channel=0 note=47 velocity=100 time=1\n",
      "\t note_on channel=0 note=56 velocity=0 time=29\n",
      "\t note_on channel=0 note=66 velocity=100 time=31\n",
      "\t note_on channel=0 note=66 velocity=0 time=29\n",
      "\t note_on channel=0 note=59 velocity=100 time=1\n",
      "\t note_on channel=0 note=61 velocity=100 time=0\n",
      "\t note_on channel=0 note=64 velocity=100 time=0\n",
      "\t note_on channel=0 note=47 velocity=0 time=29\n",
      "\t note_on channel=0 note=45 velocity=100 time=1\n",
      "control_change channel=0 control=64 value=0 time=5\n",
      "control_change channel=0 control=64 value=127 time=5\n",
      "\t note_on channel=0 note=59 velocity=0 time=19\n",
      "\t note_on channel=0 note=61 velocity=0 time=0\n",
      "\t note_on channel=0 note=64 velocity=0 time=0\n",
      "\t note_on channel=0 note=57 velocity=100 time=31\n",
      "\t note_on channel=0 note=57 velocity=0 time=23\n",
      "\t note_on channel=0 note=59 velocity=100 time=35\n",
      "\t note_on channel=0 note=61 velocity=100 time=0\n",
      "\t note_on channel=0 note=68 velocity=100 time=0\n",
      "\t note_on channel=0 note=64 velocity=100 time=2\n",
      "\t note_on channel=0 note=64 velocity=0 time=28\n",
      "\t note_on channel=0 note=68 velocity=0 time=25\n",
      "\t note_on channel=0 note=61 velocity=0 time=1\n",
      "\t note_on channel=0 note=64 velocity=100 time=6\n",
      "\t note_on channel=0 note=59 velocity=0 time=12\n",
      "\t note_on channel=0 note=64 velocity=0 time=15\n",
      "\t note_on channel=0 note=63 velocity=100 time=1\n",
      "\t note_on channel=0 note=63 velocity=0 time=25\n",
      "\t note_on channel=0 note=66 velocity=100 time=6\n",
      "\t note_on channel=0 note=66 velocity=0 time=24\n",
      "\t note_on channel=0 note=45 velocity=0 time=36\n",
      "\t note_on channel=0 note=64 velocity=100 time=1\n",
      "\t note_on channel=0 note=64 velocity=0 time=11\n",
      "\t note_on channel=0 note=54 velocity=100 time=13\n",
      "\t note_on channel=0 note=59 velocity=100 time=1\n",
      "\t note_on channel=0 note=64 velocity=100 time=0\n",
      "\t note_on channel=0 note=44 velocity=100 time=32\n",
      "\t note_on channel=0 note=59 velocity=0 time=9\n",
      "\t note_on channel=0 note=54 velocity=0 time=1\n",
      "\t note_on channel=0 note=64 velocity=0 time=10\n",
      "\t note_on channel=0 note=63 velocity=100 time=45\n",
      "\t note_on channel=0 note=63 velocity=0 time=21\n",
      "\t note_on channel=0 note=61 velocity=100 time=4\n",
      "\t note_on channel=0 note=57 velocity=100 time=1\n",
      "\t note_on channel=0 note=42 velocity=100 time=32\n",
      "\t note_on channel=0 note=44 velocity=0 time=0\n",
      "\t note_on channel=0 note=57 velocity=0 time=3\n",
      "\t note_on channel=0 note=61 velocity=0 time=0\n",
      "\t note_on channel=0 note=54 velocity=100 time=57\n",
      "\t note_on channel=0 note=54 velocity=0 time=60\n",
      "\t note_on channel=0 note=57 velocity=100 time=0\n",
      "\t note_on channel=0 note=61 velocity=100 time=0\n",
      "\t note_on channel=0 note=64 velocity=100 time=0\n",
      "\t note_on channel=0 note=64 velocity=0 time=59\n",
      "\t note_on channel=0 note=64 velocity=100 time=0\n",
      "\t note_on channel=0 note=57 velocity=0 time=1\n",
      "\t note_on channel=0 note=61 velocity=0 time=0\n",
      "\t note_on channel=0 note=64 velocity=0 time=0\n",
      "\t note_on channel=0 note=42 velocity=0 time=10\n",
      "\t note_on channel=0 note=63 velocity=100 time=16\n",
      "\t note_on channel=0 note=63 velocity=0 time=30\n",
      "\t note_on channel=0 note=47 velocity=100 time=2\n",
      "\t note_on channel=0 note=57 velocity=100 time=2\n",
      "\t note_on channel=0 note=61 velocity=100 time=0\n",
      "\t note_on channel=0 note=61 velocity=0 time=58\n",
      "\t note_on channel=0 note=63 velocity=100 time=0\n",
      "\t note_on channel=0 note=57 velocity=0 time=2\n",
      "\t note_on channel=0 note=57 velocity=100 time=27\n",
      "\t note_on channel=0 note=63 velocity=0 time=1\n",
      "\t note_on channel=0 note=61 velocity=100 time=2\n",
      "\t note_on channel=0 note=64 velocity=100 time=0\n",
      "\t note_on channel=0 note=57 velocity=0 time=57\n",
      "\t note_on channel=0 note=61 velocity=0 time=3\n",
      "\t note_on channel=0 note=64 velocity=0 time=0\n",
      "\t note_on channel=0 note=61 velocity=100 time=30\n",
      "\t note_on channel=0 note=64 velocity=100 time=0\n",
      "\t note_on channel=0 note=71 velocity=100 time=0\n",
      "\t note_on channel=0 note=61 velocity=0 time=28\n",
      "\t note_on channel=0 note=64 velocity=0 time=2\n",
      "\t note_on channel=0 note=64 velocity=100 time=0\n",
      "\t note_on channel=0 note=66 velocity=100 time=0\n",
      "\t note_on channel=0 note=68 velocity=100 time=0\n",
      "\t note_on channel=0 note=71 velocity=0 time=10\n",
      "\t note_on channel=0 note=47 velocity=0 time=8\n",
      "\t note_on channel=0 note=40 velocity=100 time=12\n",
      "\t note_on channel=0 note=64 velocity=0 time=30\n",
      "\t note_on channel=0 note=66 velocity=0 time=0\n",
      "\t note_on channel=0 note=68 velocity=0 time=0\n",
      "\t note_on channel=0 note=59 velocity=100 time=41\n",
      "\t note_on channel=0 note=59 velocity=0 time=37\n",
      "\t note_on channel=0 note=68 velocity=100 time=13\n",
      "\t note_on channel=0 note=66 velocity=100 time=2\n",
      "\t note_on channel=0 note=71 velocity=100 time=0\n",
      "\t note_on channel=0 note=71 velocity=0 time=16\n",
      "\t note_on channel=0 note=68 velocity=0 time=4\n",
      "\t note_on channel=0 note=66 velocity=0 time=5\n",
      "\t note_on channel=0 note=59 velocity=100 time=2\n",
      "\t note_on channel=0 note=68 velocity=100 time=27\n",
      "\t note_on channel=0 note=59 velocity=0 time=8\n",
      "\t note_on channel=0 note=66 velocity=100 time=17\n",
      "\t note_on channel=0 note=68 velocity=0 time=3\n",
      "\t note_on channel=0 note=66 velocity=0 time=24\n",
      "\t note_on channel=0 note=59 velocity=100 time=11\n",
      "\t note_on channel=0 note=69 velocity=100 time=0\n",
      "\t note_on channel=0 note=40 velocity=0 time=32\n",
      "\t note_on channel=0 note=59 velocity=0 time=1\n",
      "\t note_on channel=0 note=69 velocity=0 time=10\n",
      "\t note_on channel=0 note=68 velocity=100 time=17\n",
      "\t note_on channel=0 note=68 velocity=0 time=13\n",
      "MetaMessage('end_of_track', time=1)\n"
     ]
    }
   ],
   "source": [
    "mid = mido.MidiFile(midi_path)\n",
    "for track in mid.tracks:\n",
    "    for msg in track:\n",
    "        if msg.type in ['note_on']:\n",
    "            print('\\t', msg)\n",
    "        else:\n",
    "            print(msg)"
   ]
  },
  {
   "cell_type": "code",
   "execution_count": 46,
   "metadata": {},
   "outputs": [],
   "source": [
    "def get_instructions():\n",
    "    pass"
   ]
  },
  {
   "cell_type": "code",
   "execution_count": 146,
   "metadata": {},
   "outputs": [],
   "source": [
    "def midi_to_tensor(midi_path):\n",
    "\n",
    "    mid = mido.MidiFile(midi_path)\n",
    "    instruction_library = {\n",
    "        'time_shift': lambda x: ('time_shift', x),\n",
    "        'note_on': lambda x: ('note_on', x),\n",
    "        'note_off': lambda x: ('note_off', x),\n",
    "        'velocity': lambda x: ('velocity', x)\n",
    "    }\n",
    "\n",
    "    midi_instructions = []\n",
    "    for track in mid.tracks:\n",
    "\n",
    "        on_notes = []\n",
    "        last_velocity = -1\n",
    "        sustain = False\n",
    "\n",
    "        for msg in track:\n",
    "\n",
    "            # Note On\n",
    "            if (msg.type == 'note_on') and (msg.velocity != 0):\n",
    "                on_notes.append(msg.note)\n",
    "                if msg.time > 0:\n",
    "                    midi_instructions.append(instruction_library['time_shift'](msg.time))\n",
    "\n",
    "                velocity_bucket = msg.velocity // 4\n",
    "                if last_velocity != velocity_bucket:\n",
    "                    midi_instructions.append(instruction_library['velocity'](velocity_bucket))\n",
    "                    last_velocity = velocity_bucket\n",
    "                    \n",
    "                midi_instructions.append(instruction_library['note_on'](msg.note))\n",
    "\n",
    "            # Note Off\n",
    "            elif (msg.type == 'note_off') or ((msg.type == 'note_on') and (msg.velocity == 0)):\n",
    "                if msg.time > 0:\n",
    "                    midi_instructions.append(instruction_library['time_shift'](msg.time))\n",
    "                if sustain:\n",
    "                    continue\n",
    "                midi_instructions.append(instruction_library['note_off'](msg.note))\n",
    "                if msg.note in on_notes:\n",
    "                    on_notes.remove(msg.note)\n",
    "\n",
    "            # Sustain Pedal\n",
    "            elif (msg.type == 'control_change') and (msg.control == 64):\n",
    "                if msg.value < 64: # Sustain pedal off\n",
    "                    sustain = False\n",
    "                    if msg.time > 0:\n",
    "                        midi_instructions.append(instruction_library['time_shift'](msg.time))\n",
    "                    # Turn all notes off\n",
    "                    for on_note in on_notes:\n",
    "                        midi_instructions.append(instruction_library['note_off'](on_note))\n",
    "                    on_notes = []\n",
    "                else:\n",
    "                    sustain = True\n",
    "                    if msg.time > 0:\n",
    "                        midi_instructions.append(instruction_library['time_shift'](msg.time))\n",
    "\n",
    "            else:\n",
    "                continue\n",
    "\n",
    "    return midi_instructions"
   ]
  },
  {
   "cell_type": "code",
   "execution_count": 147,
   "metadata": {},
   "outputs": [],
   "source": [
    "test_midi_path = 'test.mid'\n",
    "def tensor_to_midi(midi_instructions, save_path=None):\n",
    "    midi_out = MidiFile()\n",
    "    # midi_out.tracks.append(mid.tracks[0])\n",
    "\n",
    "    track = MidiTrack()\n",
    "    track.append(MetaMessage('key_signature', key='E'))\n",
    "    track.append(MetaMessage('set_tempo', tempo=bpm2tempo(15)))\n",
    "    track.append(MetaMessage('time_signature', numerator=4, denominator=4, clocks_per_click=24, notated_32nd_notes_per_beat=8, time=0))\n",
    "\n",
    "    time_shift = 0\n",
    "    d_velocity = 0\n",
    "    for instruction in midi_instructions:\n",
    "        if instruction[0] == 'time_shift':\n",
    "            time_shift += instruction[1]\n",
    "        elif instruction[0] == 'velocity':\n",
    "            d_velocity = instruction[1]\n",
    "        else:\n",
    "            track.append(Message(instruction[0], note=instruction[1], velocity=d_velocity*4, time=time_shift))\n",
    "            time_shift = 0\n",
    "\n",
    "    track.append(MetaMessage('end_of_track', time=1))\n",
    "    midi_out.tracks.append(track)\n",
    "\n",
    "    if save_path:\n",
    "        midi_out.save(save_path)\n",
    "\n",
    "    return midi_out"
   ]
  },
  {
   "cell_type": "code",
   "execution_count": 148,
   "metadata": {},
   "outputs": [],
   "source": [
    "midi_instructions = midi_to_tensor(midi_path)\n",
    "midi_out = tensor_to_midi(midi_instructions, test_midi_path)"
   ]
  },
  {
   "cell_type": "code",
   "execution_count": 149,
   "metadata": {},
   "outputs": [
    {
     "data": {
      "text/html": [
       "<iframe srcdoc=\"&lt;script src=&quot;https://cdn.jsdelivr.net/combine/npm/tone@14.7.58,npm/@magenta/music@1.23.1/es6/core.js,npm/focus-visible@5,npm/html-midi-player@1.5.0&quot;&gt;&lt;/script&gt;  &amp;nbsp; &lt;a href=&quot;data:audio/midi;base64,TVRoZAAAAAYAAQABAeBNVHJrAAAMVgD/WQIEAAD/UQM9CQAA/1gEBAIYCACQQmQARGQAR2Q8QGRaR2QeTGQeS2QjTmQ3TGQeTGQeP2QeR2QeS2QeTGQePWQeRGQgR2RXR2QdTGQgS2QeTmQ8TGQeTGQeO2QeRGQeS2QeTGQXgEJkAERkAEdkAEBkAEdkAExkAEtkAE5kAExkAExkAD9kAEdkAEtkAExkAD1kAERkAEdkAEdkAExkAEtkAE5kAExkAExkADtkAERkAEtkAExkB5A5ZACARGQAkEVkAElkAIBMZDyQS2Q8TGQ7RWQ9SWRBS2Q3OGQBTGQ+R2QxgDlkAEVkAElkAEtkAExkAEVkAElkAEtkADhkAExkAEdkBpA2ZAKAOGQBkEVkAIBMZAJHZHWQQGQ8QmQ6OWQCgDZkAEVkAEBkAEJkADlkADZkAJBAZAGARWQCkC9kdTtkPEBkOoBAZAAvZAA7ZABAZACQNGQAgDlkAJBCZAI7ZACAQGQ6kEBkPkJkAERkAEdkPEBkPEJkAERkAEdkPEBkPEJkAERkAkdkOjtkHkBkGoA0ZABCZAA7ZABAZABCZABEZABHZABAZABCZABEZABHZABAZABCZABEZABHZAA7ZABAZAI0ZAGQMmQBgEBkAJBCZAI7ZDhCZB47ZABCZD5EZDw7ZABAZFo7ZDxCZABHZDw7ZBtAZB+AMmQAQmQAO2QAQmQAO2QAQmQARGQAO2QAQGQAO2QAQmQAR2QAO2QAQGQBMmQBkDFkADtkAEJkP0JkGztkAEJkPEBkHjtkAEBkeD9kPEBkHkJkPD1kATlkHS9kOjtkPjlkAEBkeDlkAD9keDtkPEBkHkJkATtkHShkHi9kHURkAThkPEJkHkBkW0RkAUJkAUdkOTtkPEBkPDtkHkBkHipkAEJkAz5kATlkAYAxZAA7ZABCZABCZAA7ZABCZABAZAA7ZABAZAA/ZABAZABCZAA9ZAA5ZAAvZAA7ZAA5ZABAZAA5ZAA/ZAA7ZABAZABCZAA7ZAAoZAAvZABEZAA4ZABCZABAZABEZABCZABHZAA7ZABAZAA7ZABAZAAqZABCZAA+ZAA5ZDaQQmQfQmQ8RGQeOWQAPmQARWSBNDlkAj5kOztkHEBkHzBkAD5kAEBkAEVkA4BCZABCZABEZAA5ZAA+ZABFZAA5ZAA+ZAA7ZABAZAAwZAA+ZABAZABFZDmQQ2QePmQAQGQAQ2Q8QmQeQ2QeQGQePGQAQGQAQ2RaPmQeQGQeQmQ8OWQAQGQAQmQeL2QPgENkAD5kAEBkAENkAEJkAENkAEBkADxkAEBkAENkAD5kAEBkAEJkADlkAEBkAEJkAC9kaZA5ZABAZABCZDwvZDwvZAA5ZAA/ZABCZHhHZG6AOWQAQGQAQmQAL2QAL2QAOWQAP2QAQmQAR2QKkChkAEJkAERkAEdkPEBkPEJkAERkAEdkHjtkHkBkHj9kHjtkAEJkPEBkHjtkAEBkHjNkPD9kHkBkHjFkADtkPDhkPDtkAEBkPEBkHj9kHjtkAEBkAERkPEJkHDtkAjhkAEBkHi9kPEJkHztkAD1kAEBkHS1kBYAoZABCZABEZABHZABAZABCZABEZABHZAA7ZABAZAA/ZAA7ZABCZABAZAA7ZABAZAAzZAA/ZABAZAAxZAA7ZAA4ZAA7ZABAZABAZAA/ZAA7ZABAZABEZABCZAA7ZAA4ZABAZAAvZABCZAA7ZAA9ZABAZAAtZDeQOWQ6O2QAPWQARGQCQGQ8QGQcP2QgQmQ8QGQeNmQAO2QAQGQeLGQ+P2QcOWQAPWQeKmQ8NmQ8OWQAPWQAQGQ8QGQeP2QcL2QAPWQBOWQ9P2QeOWQAPWQAQGQ8PWQAQGQAR2Q8QGQAQmQARGQeKGQ8O2Q8QmQARGQAR2QeO2QeRGQeQmQeO2QARWQ8RGQeO2QARGQeM2Q8QmQeO2QAQGQeMWQ8O2Q8O2QAQGQARGQ8RGQeQmQeL2QAQGQARGQASWQ8RGQeO2QAQGQARGRaR2QeO2QAPWQAQGQeLWQEgDlkADtkAD1kAERkAEBkAEBkAD9kAEJkAEBkADZkADtkAEBkACxkAD9kADlkAD1kACpkADZkADlkAD1kAEBkAEBkAD9kAC9kAD1kADlkAD9kADlkAD1kAEBkAD1kAEBkAEdkAEBkAEJkAERkAChkADtkAEJkAERkAEdkADtkAERkAEJkADtkAEVkAERkADtkAERkADNkAEJkADtkAEBkADFkADtkADtkAEBkAERkAERkAEJkAC9kAEBkAERkAElkAERkADtkAEBkAERkAEdkADtkAD1kAEBkAC1kOJA5ZDw7ZAA9ZABAZDxAZB4/ZB5CZDw7ZABAZB47ZABAZB4sZDxCZB45ZABAZBOAOWQAO2QAPWQAQGQAQGQAP2QAQmQAO2QAQGQAO2QAQGQALGQAQmQAOWQAQGQLkCpkPDZkPDlkAEBkAEVkPEBkHj9kHi9kADlkAEBkAERkPEJkHjlkAEBkWkJkHjtkAERkHjRkPEJkHkBkPEdkHkxkHktkHk5kPExkHkxkHj9kHkdkHktkHkxkDoAqZAA2ZAA5ZABAZABFZABAZAA/ZAAvZAA5ZABAZABEZABCZAA5ZABAZABCZAA7ZABEZAA0ZABCZABAZABHZABMZABLZABOZABMZABMZAA/ZABHZABLZABMZBCQPWQ8P2Q8QGQ8TGQeO2QAS2QeL2QAOWQAQGQASWR4OWQeOGQAQGQAR2QeNmQeNGQARGQeO2Q8QGQ8QmQARGQAR2Q8QGQ8QmQARGQAR2Q8QGQ8QmQARGQAR2Q8O2QeQGQagD1kAD9kAEBkAExkADtkAEtkAC9kADlkAEBkAElkADlkADhkAEBkAEdkADZkADRkAERkADtkAEBkAEJkAERkAEdkAEBkAEJkAERkAEdkAEBkAEJkAERkAEdkADtkAEBkA0BkAZAyZABCZAI7ZDhCZB47ZABCZFREZCA7ZAFAZF07ZDtCZAFHZD47ZBtAZB4xZAGAMmQAQmQAO2QAQmQAO2QAQmQARGQAO2QAQGQAO2QAQmQAR2QAO2QAQGQAMWQBkEJkATtkP0JkHEJkAjtkWUBkGztkAkBkZD9kMUBkIUJkNz1kAzlkHy9kODtkPjlkAEBkeDlkAD9keztkOUBkHztkAEJkHShkGS9kIThkAURkN0JkHUBkYkRkAUJkAUdkOTtkPEBkPDtkHEBkICpkADlkAEJkAz5kAoBCZAA7ZABCZABCZAA7ZABAZAA7ZABAZAA/ZABAZABCZAA9ZAA5ZAAvZAA7ZAA5ZABAZAA5ZAA/ZAA7ZABAZAA7ZABCZAAoZAAvZAA4ZABEZABCZABAZABEZABCZABHZAA7ZABAZAA7ZABAZAAqZAA5ZABCZAA+ZDeQQmQeQmQ8RGQeOWQAPmQARWSBNTlkAT5kOztkHEBkIoBCZABCZABEZAA5ZAA+ZABFZAA5ZAA+ZAA7ZABAZACQMGQBRWQBPmQAQGQ6Q2QbPmQAQ2QBQGQ7QmQcQ2QcQGQgQGQBPGQAQ2RbPmQeQGQeQmQ8OWQAQGQAQmQeL2QPgDBkAEVkAD5kAEBkAENkAD5kAENkAEBkAEJkAENkAEBkAEBkADxkAENkAD5kAEBkAEJkADlkAEBkAEJkAC9kaZA5ZABAZABCZDwvZDwvZAA5ZAA/ZABCZHVHZHGAOWQAQGQAQmQAL2QAL2QAOWQAP2QAQmQAR2QGkChkA0JkAURkAEdkPEBkPEJkAERkAEdkHjtkHkBkFz9kJTtkAEJkPkBkHDtkAEBkHjNkPD9kHkBkHjFkADtkPDhkPDtkAEBkPEBkHj9kHjtkAEBkAERkPEJkHjhkADtkAEBkHi9kPEJkHjtkAD1kAEBkHi1kBYAoZABCZABEZABHZABAZABCZABEZABHZAA7ZABAZAA/ZAA7ZABCZABAZAA7ZABAZAAzZAA/ZABAZAAxZAA7ZAA4ZAA7ZABAZABAZAA/ZAA7ZABAZABEZABCZAA4ZAA7ZABAZAAvZABCZAA7ZAA9ZABAZAAtZDeQOWQ6O2QAPWQARGQCQGQ8QGQcP2QfQmQ9QGQYNmQBO2QAQGQgLGRBP2QZPWQBOWQgKmQ8NmQ8OWQAPWQAQGQ7QGQbP2QgL2QCOWQAPWQ6P2QdOWQDPWQAQGRaPWQAQGQAR2QeQGQAQmQARGQeKGRHO2QyRGQCQmQAR2QbO2QbRGQZQmQmO2QARWQ8RGQB/y8A&quot; target=&quot;_blank&quot;&gt;Download MIDI&lt;/a&gt;&lt;br&gt;\n",
       "            &lt;midi-player src=&quot;data:audio/midi;base64,TVRoZAAAAAYAAQABAeBNVHJrAAAMVgD/WQIEAAD/UQM9CQAA/1gEBAIYCACQQmQARGQAR2Q8QGRaR2QeTGQeS2QjTmQ3TGQeTGQeP2QeR2QeS2QeTGQePWQeRGQgR2RXR2QdTGQgS2QeTmQ8TGQeTGQeO2QeRGQeS2QeTGQXgEJkAERkAEdkAEBkAEdkAExkAEtkAE5kAExkAExkAD9kAEdkAEtkAExkAD1kAERkAEdkAEdkAExkAEtkAE5kAExkAExkADtkAERkAEtkAExkB5A5ZACARGQAkEVkAElkAIBMZDyQS2Q8TGQ7RWQ9SWRBS2Q3OGQBTGQ+R2QxgDlkAEVkAElkAEtkAExkAEVkAElkAEtkADhkAExkAEdkBpA2ZAKAOGQBkEVkAIBMZAJHZHWQQGQ8QmQ6OWQCgDZkAEVkAEBkAEJkADlkADZkAJBAZAGARWQCkC9kdTtkPEBkOoBAZAAvZAA7ZABAZACQNGQAgDlkAJBCZAI7ZACAQGQ6kEBkPkJkAERkAEdkPEBkPEJkAERkAEdkPEBkPEJkAERkAkdkOjtkHkBkGoA0ZABCZAA7ZABAZABCZABEZABHZABAZABCZABEZABHZABAZABCZABEZABHZAA7ZABAZAI0ZAGQMmQBgEBkAJBCZAI7ZDhCZB47ZABCZD5EZDw7ZABAZFo7ZDxCZABHZDw7ZBtAZB+AMmQAQmQAO2QAQmQAO2QAQmQARGQAO2QAQGQAO2QAQmQAR2QAO2QAQGQBMmQBkDFkADtkAEJkP0JkGztkAEJkPEBkHjtkAEBkeD9kPEBkHkJkPD1kATlkHS9kOjtkPjlkAEBkeDlkAD9keDtkPEBkHkJkATtkHShkHi9kHURkAThkPEJkHkBkW0RkAUJkAUdkOTtkPEBkPDtkHkBkHipkAEJkAz5kATlkAYAxZAA7ZABCZABCZAA7ZABCZABAZAA7ZABAZAA/ZABAZABCZAA9ZAA5ZAAvZAA7ZAA5ZABAZAA5ZAA/ZAA7ZABAZABCZAA7ZAAoZAAvZABEZAA4ZABCZABAZABEZABCZABHZAA7ZABAZAA7ZABAZAAqZABCZAA+ZAA5ZDaQQmQfQmQ8RGQeOWQAPmQARWSBNDlkAj5kOztkHEBkHzBkAD5kAEBkAEVkA4BCZABCZABEZAA5ZAA+ZABFZAA5ZAA+ZAA7ZABAZAAwZAA+ZABAZABFZDmQQ2QePmQAQGQAQ2Q8QmQeQ2QeQGQePGQAQGQAQ2RaPmQeQGQeQmQ8OWQAQGQAQmQeL2QPgENkAD5kAEBkAENkAEJkAENkAEBkADxkAEBkAENkAD5kAEBkAEJkADlkAEBkAEJkAC9kaZA5ZABAZABCZDwvZDwvZAA5ZAA/ZABCZHhHZG6AOWQAQGQAQmQAL2QAL2QAOWQAP2QAQmQAR2QKkChkAEJkAERkAEdkPEBkPEJkAERkAEdkHjtkHkBkHj9kHjtkAEJkPEBkHjtkAEBkHjNkPD9kHkBkHjFkADtkPDhkPDtkAEBkPEBkHj9kHjtkAEBkAERkPEJkHDtkAjhkAEBkHi9kPEJkHztkAD1kAEBkHS1kBYAoZABCZABEZABHZABAZABCZABEZABHZAA7ZABAZAA/ZAA7ZABCZABAZAA7ZABAZAAzZAA/ZABAZAAxZAA7ZAA4ZAA7ZABAZABAZAA/ZAA7ZABAZABEZABCZAA7ZAA4ZABAZAAvZABCZAA7ZAA9ZABAZAAtZDeQOWQ6O2QAPWQARGQCQGQ8QGQcP2QgQmQ8QGQeNmQAO2QAQGQeLGQ+P2QcOWQAPWQeKmQ8NmQ8OWQAPWQAQGQ8QGQeP2QcL2QAPWQBOWQ9P2QeOWQAPWQAQGQ8PWQAQGQAR2Q8QGQAQmQARGQeKGQ8O2Q8QmQARGQAR2QeO2QeRGQeQmQeO2QARWQ8RGQeO2QARGQeM2Q8QmQeO2QAQGQeMWQ8O2Q8O2QAQGQARGQ8RGQeQmQeL2QAQGQARGQASWQ8RGQeO2QAQGQARGRaR2QeO2QAPWQAQGQeLWQEgDlkADtkAD1kAERkAEBkAEBkAD9kAEJkAEBkADZkADtkAEBkACxkAD9kADlkAD1kACpkADZkADlkAD1kAEBkAEBkAD9kAC9kAD1kADlkAD9kADlkAD1kAEBkAD1kAEBkAEdkAEBkAEJkAERkAChkADtkAEJkAERkAEdkADtkAERkAEJkADtkAEVkAERkADtkAERkADNkAEJkADtkAEBkADFkADtkADtkAEBkAERkAERkAEJkAC9kAEBkAERkAElkAERkADtkAEBkAERkAEdkADtkAD1kAEBkAC1kOJA5ZDw7ZAA9ZABAZDxAZB4/ZB5CZDw7ZABAZB47ZABAZB4sZDxCZB45ZABAZBOAOWQAO2QAPWQAQGQAQGQAP2QAQmQAO2QAQGQAO2QAQGQALGQAQmQAOWQAQGQLkCpkPDZkPDlkAEBkAEVkPEBkHj9kHi9kADlkAEBkAERkPEJkHjlkAEBkWkJkHjtkAERkHjRkPEJkHkBkPEdkHkxkHktkHk5kPExkHkxkHj9kHkdkHktkHkxkDoAqZAA2ZAA5ZABAZABFZABAZAA/ZAAvZAA5ZABAZABEZABCZAA5ZABAZABCZAA7ZABEZAA0ZABCZABAZABHZABMZABLZABOZABMZABMZAA/ZABHZABLZABMZBCQPWQ8P2Q8QGQ8TGQeO2QAS2QeL2QAOWQAQGQASWR4OWQeOGQAQGQAR2QeNmQeNGQARGQeO2Q8QGQ8QmQARGQAR2Q8QGQ8QmQARGQAR2Q8QGQ8QmQARGQAR2Q8O2QeQGQagD1kAD9kAEBkAExkADtkAEtkAC9kADlkAEBkAElkADlkADhkAEBkAEdkADZkADRkAERkADtkAEBkAEJkAERkAEdkAEBkAEJkAERkAEdkAEBkAEJkAERkAEdkADtkAEBkA0BkAZAyZABCZAI7ZDhCZB47ZABCZFREZCA7ZAFAZF07ZDtCZAFHZD47ZBtAZB4xZAGAMmQAQmQAO2QAQmQAO2QAQmQARGQAO2QAQGQAO2QAQmQAR2QAO2QAQGQAMWQBkEJkATtkP0JkHEJkAjtkWUBkGztkAkBkZD9kMUBkIUJkNz1kAzlkHy9kODtkPjlkAEBkeDlkAD9keztkOUBkHztkAEJkHShkGS9kIThkAURkN0JkHUBkYkRkAUJkAUdkOTtkPEBkPDtkHEBkICpkADlkAEJkAz5kAoBCZAA7ZABCZABCZAA7ZABAZAA7ZABAZAA/ZABAZABCZAA9ZAA5ZAAvZAA7ZAA5ZABAZAA5ZAA/ZAA7ZABAZAA7ZABCZAAoZAAvZAA4ZABEZABCZABAZABEZABCZABHZAA7ZABAZAA7ZABAZAAqZAA5ZABCZAA+ZDeQQmQeQmQ8RGQeOWQAPmQARWSBNTlkAT5kOztkHEBkIoBCZABCZABEZAA5ZAA+ZABFZAA5ZAA+ZAA7ZABAZACQMGQBRWQBPmQAQGQ6Q2QbPmQAQ2QBQGQ7QmQcQ2QcQGQgQGQBPGQAQ2RbPmQeQGQeQmQ8OWQAQGQAQmQeL2QPgDBkAEVkAD5kAEBkAENkAD5kAENkAEBkAEJkAENkAEBkAEBkADxkAENkAD5kAEBkAEJkADlkAEBkAEJkAC9kaZA5ZABAZABCZDwvZDwvZAA5ZAA/ZABCZHVHZHGAOWQAQGQAQmQAL2QAL2QAOWQAP2QAQmQAR2QGkChkA0JkAURkAEdkPEBkPEJkAERkAEdkHjtkHkBkFz9kJTtkAEJkPkBkHDtkAEBkHjNkPD9kHkBkHjFkADtkPDhkPDtkAEBkPEBkHj9kHjtkAEBkAERkPEJkHjhkADtkAEBkHi9kPEJkHjtkAD1kAEBkHi1kBYAoZABCZABEZABHZABAZABCZABEZABHZAA7ZABAZAA/ZAA7ZABCZABAZAA7ZABAZAAzZAA/ZABAZAAxZAA7ZAA4ZAA7ZABAZABAZAA/ZAA7ZABAZABEZABCZAA4ZAA7ZABAZAAvZABCZAA7ZAA9ZABAZAAtZDeQOWQ6O2QAPWQARGQCQGQ8QGQcP2QfQmQ9QGQYNmQBO2QAQGQgLGRBP2QZPWQBOWQgKmQ8NmQ8OWQAPWQAQGQ7QGQbP2QgL2QCOWQAPWQ6P2QdOWQDPWQAQGRaPWQAQGQAR2QeQGQAQmQARGQeKGRHO2QyRGQCQmQAR2QbO2QbRGQZQmQmO2QARWQ8RGQB/y8A&quot; sound-font visualizer=&quot;#myVisualizer&quot;&gt;&lt;/midi-player&gt;\n",
       "            &lt;midi-visualizer type=&quot;piano-roll&quot; id=&quot;myVisualizer&quot; style=&quot;background: #fff;&quot;&gt;&lt;/midi-visualizer&gt;\" width=\"100%\" height=\"400\"\n",
       "            style=\"border:none !important;\"\n",
       "            \"allowfullscreen\" \"webkitallowfullscreen\" \"mozallowfullscreen\">'\n",
       "            </iframe>"
      ],
      "text/plain": [
       "<midi_player.midi_player.MIDIPlayer at 0x12147c880>"
      ]
     },
     "execution_count": 149,
     "metadata": {},
     "output_type": "execute_result"
    }
   ],
   "source": [
    "MIDIPlayer(test_midi_path, 400)"
   ]
  },
  {
   "cell_type": "code",
   "execution_count": 45,
   "metadata": {},
   "outputs": [
    {
     "data": {
      "text/html": [
       "<iframe srcdoc=\"&lt;script src=&quot;https://cdn.jsdelivr.net/combine/npm/tone@14.7.58,npm/@magenta/music@1.23.1/es6/core.js,npm/focus-visible@5,npm/html-midi-player@1.5.0&quot;&gt;&lt;/script&gt;  &amp;nbsp; &lt;a href=&quot;data:audio/midi;base64,TVRoZAAAAAYAAQACAHhNVHJrAAAAGQD/UQMPQkAA/1gEBAIYCAD/WQIEAAH/LwBNVHJrAAANMgDAAACwB24AQH8AkEJkAERkAEdkPEBkWkcAAEdkHkcAAExkHktkAkwAHEsABU5kN0xkBU4AGUwAAExkHj9kAEAAAEIAAEQAHkdkAEwAHkcAAEtkHksAAExkHj1kAD8AHkRkHkwAAkdkV0cAAEdkA0cAGkxkHkwAAktkHksAAE5kKD0AFExkAE4AHkwAAExkHjtkAEQAHjsAAERkAEwAHktkHUsAAUxkF7BAAAeQOWQARAAARWQASWQATAARsEB/K5BJAABLZDtLAAFMZDtFAABFZAFFADxJZABMADxJAAVLZDc4ZAA5AAFMZARLADpHZDGwQAAGkDZkAjgAAUVkAEwAAkcADLBAf2mQQGQ6QAACQmQ3QgADOWQCsEAAAJA2AABAZAFFAAIvZA2wQH9okDtkAEAAOS8AAzsAAEBkOrBAAACQNGQAOQAAQmQCO2QAQAAOsEB/J5BCAAVAZBg7AAFAACVCZABEZABHZDtCAAFAZABEAABHADxAAABCZABEZABHZDxAZABCAABHAAFEADtAAABCZABEZAJHZDo7ZABCAABEAAJHABw7AABAZBqwQAACkDQAATJkAUAAAEJkAjtkA7BAfx2QOwAAQgAYQmQeO2QAQgAAQmQ8OwAAQgACRGQ8O2QAQGQARABSQAAIOwAAO2Q8OwAAQmQAR2QoRwADQgARO2QbQGQDOwAbQAABsEAAAZAyAAExZAA7ZABCZAWwQH8bkDsAHEIAA0JkGztkAEIAAEJkA0IALzsACkBkHjtkAEAAAEBkeDsAAD9kAEAAPD8AAEBkHkAAAEJkM0IACT1kATlkHS9kADEAOjtkAj0AATkAOTsAAjlkAEBkeDkAADlkAD9kAEAAeDkAADtkAD8ANS8ABzsAAEBkHkAAAEJkATtkHShkHi9kHURkAS8AADhkAEIAO0QAAUJkHkBkA0IAV0AAATsAAERkAUJkAUdkOTtkAkIAAUcAAUQAOEBkAzsAOTtkAEAAHkBkATsAHSgAACpkADgAAEAAAEJkAz5kATlkAbBAAAVAfzGQQgAAQmQBQgAeQmQ8QgAARGQeOQAAOWQAPgAAPmQARAAARWQDPgABOQCBMDlkAEUAAj5kOjkAATtkAT4AG0BkAzsAG0AAASoAADBkAD5kAEBkAEVkA7BAAARAfzSQPgAAQAAARQABQ2QdQwABPmQAQGQAQ2Q7PgAAQAAAQwABQmQdQgABQ2QdQwABQGQdQAABPGQAQGQAQ2Q7PAAAQAAeQwABPmQdPgABQGQeQmQdQAAAQgAfOWQAQGQAQmQeL2QAMAAPsEAAAkB/Z5A5AAA5ZABAAABAZABCAABCZDwvAAAvZDwvAAAvZAA5AAA5ZAA/ZABAAABCAABCZHg5AAA/AABCAABHZG6wQAAKQH8AkChkAC8AAEJkAERkAEcAAEdkO0IAAEQAAEcAAUBkPEAAAEJkAERkAEdkHUIAAEQAATtkAEcAHTsAAUBkHUAAAT9kHT8AATtkAEJkO0IAATsAAEBkHUAAATtkAEBkHigAADNkPDsAAD9kAEAAHT8AAUBkHjFkADMAADtkPDhkADsAAEAAPDgAADtkAEBkPDsAAEAAAEBkHj9kAEAAHjtkAD8AAEBkAERkIEQAATsAGkAAAUJkHDtkAjhkAEBkAEIAHi9kADEAOjsAAjgAAEAAAEJkHkIAATtkAD1kAEBkHS1kAy8AArBAAAVAfzKQOWQBOwAAPQAAQAA5O2QAPWQARGQCOQAAQGQ1RAABPQAEOwACQAAAQGQbQAABP2QePwACQmQ8QGQAQgAeNmQAO2QAQAAAQGQeLGQALQA8NgAAOwAAQAACP2QcOWQAPWQCPwAcKmQDLAA5NmQAOQAAPQA8NgAAOWQAPWQAQGQ8OQAAPQAAQAAAQGQKKgAPQAAFP2QcL2QAPWQBOWQBPwAdOQAbPQAEP2QeOWQAPWQAPwAAQGQ8OQAAPQAAPWQAQAAAQGQAR2Q8PQAAQAAAQGQAQmQARGQARwASLwAMKGQ8O2QAQAAAQgAARAA8OwAAQmQARGQAR2QdQgAARAAARwABO2QeOwAARGQdRAABQmQdQgABO2QARWQdKAAfOwAARGQARQAdRAABO2QARGQeM2Q8OwAAQmQARAAdQgABO2QAQGQdMwABMWQ8OwAAO2QAQAA8OwAAO2QAQGQARGQ8OwAAQAAARAAARGQdRAABQmQdMQAAQgABL2QAQGQARGQASWQ8QAAARAAARGQASQAdRAABO2QAQGQARGRZLwABOwAAQAAARAAAR2QdRwABO2QAPWQAQGQeLWQEsEAAB0B/MZA5ZAA7AAA9AABAADs5AAE7ZAA9ZABAZDs7AAA9AABAAAFAZB1AAAE/ZB0/AAFCZDtCAAE7ZABAZB07AABAAAE7ZABAZB4sZAAtADw7AABAAABCZB1CAAE5ZABAZBOwQAAIQH8DkCpkACwAPDZkADkAAEAAOzYAATlkAEBkAEVkOzkAAEAAAEUAAUBkHUAAAT9kHSoAAD8AAS9kADlkAEBkAERkOzkAAEAAAEQAAUJkHUIAATlkAEBkWTkAAEAAAUJkHUIAATtkAERkHi8AADRkPEJkAEQAHUIAAUBkPEAAAEdkHUcAAUxkHUwAAUtkHUsAATsAAE5kPExkAE4AHUwAAUxkHjQAAD9kHkdkAEwAHkcAAEtkHUsAAUxkDrBAAA5AfwGQPwABPWQ7PQABP2Q7PwABQGQ8TAAATGQdQAAATAABO2QAS2QdOwAASwABL2QAOWQAQGQASWR3LwABOQAAOWQAQAAASQAdOQABOGQAQGQAR2QdOAAAQAAARwABNmQeNGQARGQdNAAANgAARAABO2Q8QGQdOwAAQAAfQmQARGQAR2QdRwAeQgAARAABQGQ7QAABQmQARGQAR2Q7QgAARAAARwABQGQ7QAABQmQARGQAR2QdQgAARAAARwAfO2QdOwABQGQasEAAA5BAAAEyZABCZAI7ZAOwQH8dkDsAAEIAGEJkDkIAEDtkAEJkOjsAGkRkBkIAF0QAAztkAUBkMzsAH0AACztkO0JkAUdkCDsAIEcAAkIAEzIAATtkG0BkCjsADkAABjFkAbBAAAGQQmQBO2QFsEB/G5A7AAhCABdCZA1CAA9CZAI7ZDI7ACdAZAJCAAhAABE7ZAJAZD47ACY/ZAJAACs/AARAZCFCZAVAAC5CAAQ9ZAM5ZB8vZAQxAAY5ABE9AB07ZBM7ACs5ZABAZDs5AA9AAC45ZAA/ZDg5AAc/ADw7ZCs7AAkvAAVAZBVAAAo7ZABCZB0oZBdCAAIvZAEoABw7AAEvAAM4ZAFEZDdCZAJEABtAZARCAC9AAC9EZAFCZAFHZDJCAAc7ZAREACZHABJAZAM7ACRAABI4AAM7ZBxAZAM7AAZAABcqZAA5ZABCZAM+ZAKwQAAFQH8fkEIAE0JkEUIADUJkJT4AAkIAFURkBTkAB0QAEjlkAD5kAEVkVDkAAT4AMkUALjlkAT5kHjkAFz4ABCoAAjtkHEBkAzsABkAAGbBAAACQMGQBRWQBPmQAQGQCsEB/J5A+AAVFAAFAAAtDZA1DAA4+ZABDZAFAZDk+AAJCZANDAANAABZDZAZCABZAZAJDAA5AABBAZAE8ZABDZDg8AAxAABc+ZAtDABM+AABAZB5AAABCZB9CAB05ZABAZABCZAYwABgvZA+wQAACQH8CkDkAE0AAA0IATzlkAEBkAEJkHC8AIC9kA0AAATkAAkIABS8AMS9kADlkAD9kAEJkJjkAFD8AA0IAOEdkPkcAAy8AMLBAAAaQKGQDQmQBsEB/AJBEZABHZDBCAANHAAdEAAJAZCFAABtCZABEZABHZA1HAAFCAABEABA7ZB5AZAk7AA4/ZAVAAB0/AAM7ZABCZCY7ABNCAAVAZAIoAAlAABE7ZABAZB4zZABAAAo7ADI/ZBw/AAJAZB4xZAAzAAA7ZARAABw7ABw4ZDs4AAE7ZABAZB07AABAAB9AZB1AAAE/ZB0/AAE7ZABAZABEZB07AABEAB4xAABAAAFCZB1CAAE4ZAA7ZABAZB07AABAAAEvZB04AB9CZB1CAAE7ZAA9ZABAZB0vAAEtZAWwQAAFQH8TkDsAAD0AAEAAHzlkFzkAIztkAD1kAERkAkBkHEAAGUQAAT0ABkBkDDsAD0AAAT9kGT8ABkJkGEIAJC0AAUBkC0AADTZkATtkAEBkICxkCTsAATYACkAALT9kFT8ABD1kATlkICpkACwAAzkAAD0AOTZkPDYAADlkAD1kAEBkO0AAAEBkATkAAD0AAEAACioAED9kHj8AAi9kAjlkAD1kOj0AAD9kAjkAGzlkAT8AAj1kAEBkOTkAAz0AAEAAHj1kAEBkAEdkHD0AAkAAAEBkAEJkAERkCkcACC8ADChkHkAAAEIAAEQAKTtkJTsADURkAkJkAEdkEEcABEQABUIAAjtkG0RkCDsAEUJkA0QAGEIACztkAEVkICgAATsACkUAEURkDUQAAf8vAA==&quot; target=&quot;_blank&quot;&gt;Download MIDI&lt;/a&gt;&lt;br&gt;\n",
       "            &lt;midi-player src=&quot;data:audio/midi;base64,TVRoZAAAAAYAAQACAHhNVHJrAAAAGQD/UQMPQkAA/1gEBAIYCAD/WQIEAAH/LwBNVHJrAAANMgDAAACwB24AQH8AkEJkAERkAEdkPEBkWkcAAEdkHkcAAExkHktkAkwAHEsABU5kN0xkBU4AGUwAAExkHj9kAEAAAEIAAEQAHkdkAEwAHkcAAEtkHksAAExkHj1kAD8AHkRkHkwAAkdkV0cAAEdkA0cAGkxkHkwAAktkHksAAE5kKD0AFExkAE4AHkwAAExkHjtkAEQAHjsAAERkAEwAHktkHUsAAUxkF7BAAAeQOWQARAAARWQASWQATAARsEB/K5BJAABLZDtLAAFMZDtFAABFZAFFADxJZABMADxJAAVLZDc4ZAA5AAFMZARLADpHZDGwQAAGkDZkAjgAAUVkAEwAAkcADLBAf2mQQGQ6QAACQmQ3QgADOWQCsEAAAJA2AABAZAFFAAIvZA2wQH9okDtkAEAAOS8AAzsAAEBkOrBAAACQNGQAOQAAQmQCO2QAQAAOsEB/J5BCAAVAZBg7AAFAACVCZABEZABHZDtCAAFAZABEAABHADxAAABCZABEZABHZDxAZABCAABHAAFEADtAAABCZABEZAJHZDo7ZABCAABEAAJHABw7AABAZBqwQAACkDQAATJkAUAAAEJkAjtkA7BAfx2QOwAAQgAYQmQeO2QAQgAAQmQ8OwAAQgACRGQ8O2QAQGQARABSQAAIOwAAO2Q8OwAAQmQAR2QoRwADQgARO2QbQGQDOwAbQAABsEAAAZAyAAExZAA7ZABCZAWwQH8bkDsAHEIAA0JkGztkAEIAAEJkA0IALzsACkBkHjtkAEAAAEBkeDsAAD9kAEAAPD8AAEBkHkAAAEJkM0IACT1kATlkHS9kADEAOjtkAj0AATkAOTsAAjlkAEBkeDkAADlkAD9kAEAAeDkAADtkAD8ANS8ABzsAAEBkHkAAAEJkATtkHShkHi9kHURkAS8AADhkAEIAO0QAAUJkHkBkA0IAV0AAATsAAERkAUJkAUdkOTtkAkIAAUcAAUQAOEBkAzsAOTtkAEAAHkBkATsAHSgAACpkADgAAEAAAEJkAz5kATlkAbBAAAVAfzGQQgAAQmQBQgAeQmQ8QgAARGQeOQAAOWQAPgAAPmQARAAARWQDPgABOQCBMDlkAEUAAj5kOjkAATtkAT4AG0BkAzsAG0AAASoAADBkAD5kAEBkAEVkA7BAAARAfzSQPgAAQAAARQABQ2QdQwABPmQAQGQAQ2Q7PgAAQAAAQwABQmQdQgABQ2QdQwABQGQdQAABPGQAQGQAQ2Q7PAAAQAAeQwABPmQdPgABQGQeQmQdQAAAQgAfOWQAQGQAQmQeL2QAMAAPsEAAAkB/Z5A5AAA5ZABAAABAZABCAABCZDwvAAAvZDwvAAAvZAA5AAA5ZAA/ZABAAABCAABCZHg5AAA/AABCAABHZG6wQAAKQH8AkChkAC8AAEJkAERkAEcAAEdkO0IAAEQAAEcAAUBkPEAAAEJkAERkAEdkHUIAAEQAATtkAEcAHTsAAUBkHUAAAT9kHT8AATtkAEJkO0IAATsAAEBkHUAAATtkAEBkHigAADNkPDsAAD9kAEAAHT8AAUBkHjFkADMAADtkPDhkADsAAEAAPDgAADtkAEBkPDsAAEAAAEBkHj9kAEAAHjtkAD8AAEBkAERkIEQAATsAGkAAAUJkHDtkAjhkAEBkAEIAHi9kADEAOjsAAjgAAEAAAEJkHkIAATtkAD1kAEBkHS1kAy8AArBAAAVAfzKQOWQBOwAAPQAAQAA5O2QAPWQARGQCOQAAQGQ1RAABPQAEOwACQAAAQGQbQAABP2QePwACQmQ8QGQAQgAeNmQAO2QAQAAAQGQeLGQALQA8NgAAOwAAQAACP2QcOWQAPWQCPwAcKmQDLAA5NmQAOQAAPQA8NgAAOWQAPWQAQGQ8OQAAPQAAQAAAQGQKKgAPQAAFP2QcL2QAPWQBOWQBPwAdOQAbPQAEP2QeOWQAPWQAPwAAQGQ8OQAAPQAAPWQAQAAAQGQAR2Q8PQAAQAAAQGQAQmQARGQARwASLwAMKGQ8O2QAQAAAQgAARAA8OwAAQmQARGQAR2QdQgAARAAARwABO2QeOwAARGQdRAABQmQdQgABO2QARWQdKAAfOwAARGQARQAdRAABO2QARGQeM2Q8OwAAQmQARAAdQgABO2QAQGQdMwABMWQ8OwAAO2QAQAA8OwAAO2QAQGQARGQ8OwAAQAAARAAARGQdRAABQmQdMQAAQgABL2QAQGQARGQASWQ8QAAARAAARGQASQAdRAABO2QAQGQARGRZLwABOwAAQAAARAAAR2QdRwABO2QAPWQAQGQeLWQEsEAAB0B/MZA5ZAA7AAA9AABAADs5AAE7ZAA9ZABAZDs7AAA9AABAAAFAZB1AAAE/ZB0/AAFCZDtCAAE7ZABAZB07AABAAAE7ZABAZB4sZAAtADw7AABAAABCZB1CAAE5ZABAZBOwQAAIQH8DkCpkACwAPDZkADkAAEAAOzYAATlkAEBkAEVkOzkAAEAAAEUAAUBkHUAAAT9kHSoAAD8AAS9kADlkAEBkAERkOzkAAEAAAEQAAUJkHUIAATlkAEBkWTkAAEAAAUJkHUIAATtkAERkHi8AADRkPEJkAEQAHUIAAUBkPEAAAEdkHUcAAUxkHUwAAUtkHUsAATsAAE5kPExkAE4AHUwAAUxkHjQAAD9kHkdkAEwAHkcAAEtkHUsAAUxkDrBAAA5AfwGQPwABPWQ7PQABP2Q7PwABQGQ8TAAATGQdQAAATAABO2QAS2QdOwAASwABL2QAOWQAQGQASWR3LwABOQAAOWQAQAAASQAdOQABOGQAQGQAR2QdOAAAQAAARwABNmQeNGQARGQdNAAANgAARAABO2Q8QGQdOwAAQAAfQmQARGQAR2QdRwAeQgAARAABQGQ7QAABQmQARGQAR2Q7QgAARAAARwABQGQ7QAABQmQARGQAR2QdQgAARAAARwAfO2QdOwABQGQasEAAA5BAAAEyZABCZAI7ZAOwQH8dkDsAAEIAGEJkDkIAEDtkAEJkOjsAGkRkBkIAF0QAAztkAUBkMzsAH0AACztkO0JkAUdkCDsAIEcAAkIAEzIAATtkG0BkCjsADkAABjFkAbBAAAGQQmQBO2QFsEB/G5A7AAhCABdCZA1CAA9CZAI7ZDI7ACdAZAJCAAhAABE7ZAJAZD47ACY/ZAJAACs/AARAZCFCZAVAAC5CAAQ9ZAM5ZB8vZAQxAAY5ABE9AB07ZBM7ACs5ZABAZDs5AA9AAC45ZAA/ZDg5AAc/ADw7ZCs7AAkvAAVAZBVAAAo7ZABCZB0oZBdCAAIvZAEoABw7AAEvAAM4ZAFEZDdCZAJEABtAZARCAC9AAC9EZAFCZAFHZDJCAAc7ZAREACZHABJAZAM7ACRAABI4AAM7ZBxAZAM7AAZAABcqZAA5ZABCZAM+ZAKwQAAFQH8fkEIAE0JkEUIADUJkJT4AAkIAFURkBTkAB0QAEjlkAD5kAEVkVDkAAT4AMkUALjlkAT5kHjkAFz4ABCoAAjtkHEBkAzsABkAAGbBAAACQMGQBRWQBPmQAQGQCsEB/J5A+AAVFAAFAAAtDZA1DAA4+ZABDZAFAZDk+AAJCZANDAANAABZDZAZCABZAZAJDAA5AABBAZAE8ZABDZDg8AAxAABc+ZAtDABM+AABAZB5AAABCZB9CAB05ZABAZABCZAYwABgvZA+wQAACQH8CkDkAE0AAA0IATzlkAEBkAEJkHC8AIC9kA0AAATkAAkIABS8AMS9kADlkAD9kAEJkJjkAFD8AA0IAOEdkPkcAAy8AMLBAAAaQKGQDQmQBsEB/AJBEZABHZDBCAANHAAdEAAJAZCFAABtCZABEZABHZA1HAAFCAABEABA7ZB5AZAk7AA4/ZAVAAB0/AAM7ZABCZCY7ABNCAAVAZAIoAAlAABE7ZABAZB4zZABAAAo7ADI/ZBw/AAJAZB4xZAAzAAA7ZARAABw7ABw4ZDs4AAE7ZABAZB07AABAAB9AZB1AAAE/ZB0/AAE7ZABAZABEZB07AABEAB4xAABAAAFCZB1CAAE4ZAA7ZABAZB07AABAAAEvZB04AB9CZB1CAAE7ZAA9ZABAZB0vAAEtZAWwQAAFQH8TkDsAAD0AAEAAHzlkFzkAIztkAD1kAERkAkBkHEAAGUQAAT0ABkBkDDsAD0AAAT9kGT8ABkJkGEIAJC0AAUBkC0AADTZkATtkAEBkICxkCTsAATYACkAALT9kFT8ABD1kATlkICpkACwAAzkAAD0AOTZkPDYAADlkAD1kAEBkO0AAAEBkATkAAD0AAEAACioAED9kHj8AAi9kAjlkAD1kOj0AAD9kAjkAGzlkAT8AAj1kAEBkOTkAAz0AAEAAHj1kAEBkAEdkHD0AAkAAAEBkAEJkAERkCkcACC8ADChkHkAAAEIAAEQAKTtkJTsADURkAkJkAEdkEEcABEQABUIAAjtkG0RkCDsAEUJkA0QAGEIACztkAEVkICgAATsACkUAEURkDUQAAf8vAA==&quot; sound-font visualizer=&quot;#myVisualizer&quot;&gt;&lt;/midi-player&gt;\n",
       "            &lt;midi-visualizer type=&quot;piano-roll&quot; id=&quot;myVisualizer&quot; style=&quot;background: #fff;&quot;&gt;&lt;/midi-visualizer&gt;\" width=\"100%\" height=\"400\"\n",
       "            style=\"border:none !important;\"\n",
       "            \"allowfullscreen\" \"webkitallowfullscreen\" \"mozallowfullscreen\">'\n",
       "            </iframe>"
      ],
      "text/plain": [
       "<midi_player.midi_player.MIDIPlayer at 0x121264940>"
      ]
     },
     "execution_count": 45,
     "metadata": {},
     "output_type": "execute_result"
    }
   ],
   "source": [
    "MIDIPlayer(midi_path, 400)"
   ]
  },
  {
   "cell_type": "code",
   "execution_count": 55,
   "metadata": {},
   "outputs": [
    {
     "name": "stdout",
     "output_type": "stream",
     "text": [
      "\t---\n",
      "MetaMessage('key_signature', key='E', time=0)\n",
      "MetaMessage('set_tempo', tempo=1000000, time=0)\n",
      "MetaMessage('time_signature', numerator=4, denominator=4, clocks_per_click=24, notated_32nd_notes_per_beat=8, time=0)\n",
      "program_change channel=0 program=12 time=10\n",
      "note_on channel=0 note=66 velocity=0 time=0\n",
      "note_on channel=0 note=68 velocity=0 time=0\n",
      "note_on channel=0 note=71 velocity=0 time=0\n",
      "note_on channel=0 note=64 velocity=0 time=60\n",
      "note_off channel=0 note=71 velocity=0 time=90\n",
      "note_on channel=0 note=71 velocity=0 time=0\n",
      "note_off channel=0 note=71 velocity=0 time=30\n",
      "note_on channel=0 note=76 velocity=0 time=0\n",
      "note_on channel=0 note=75 velocity=0 time=30\n",
      "note_off channel=0 note=76 velocity=0 time=2\n",
      "note_off channel=0 note=75 velocity=0 time=28\n",
      "note_on channel=0 note=78 velocity=0 time=5\n",
      "note_on channel=0 note=76 velocity=0 time=55\n",
      "note_off channel=0 note=78 velocity=0 time=5\n",
      "note_off channel=0 note=76 velocity=0 time=25\n",
      "note_on channel=0 note=76 velocity=0 time=0\n",
      "note_on channel=0 note=63 velocity=0 time=30\n",
      "note_off channel=0 note=64 velocity=0 time=0\n",
      "note_off channel=0 note=66 velocity=0 time=0\n",
      "note_off channel=0 note=68 velocity=0 time=0\n",
      "note_on channel=0 note=71 velocity=0 time=30\n",
      "note_off channel=0 note=76 velocity=0 time=0\n",
      "note_off channel=0 note=71 velocity=0 time=30\n",
      "note_on channel=0 note=75 velocity=0 time=0\n",
      "note_off channel=0 note=75 velocity=0 time=30\n",
      "note_on channel=0 note=76 velocity=0 time=0\n",
      "note_on channel=0 note=61 velocity=0 time=30\n",
      "note_off channel=0 note=63 velocity=0 time=0\n",
      "note_on channel=0 note=68 velocity=0 time=30\n",
      "note_off channel=0 note=76 velocity=0 time=30\n",
      "note_on channel=0 note=71 velocity=0 time=2\n",
      "note_off channel=0 note=71 velocity=0 time=87\n",
      "note_on channel=0 note=71 velocity=0 time=0\n",
      "note_off channel=0 note=71 velocity=0 time=3\n",
      "note_on channel=0 note=76 velocity=0 time=26\n",
      "note_off channel=0 note=76 velocity=0 time=30\n",
      "note_on channel=0 note=75 velocity=0 time=2\n",
      "note_off channel=0 note=75 velocity=0 time=30\n",
      "note_on channel=0 note=78 velocity=0 time=0\n",
      "note_off channel=0 note=61 velocity=0 time=40\n",
      "note_on channel=0 note=76 velocity=0 time=20\n",
      "note_off channel=0 note=78 velocity=0 time=0\n",
      "note_off channel=0 note=76 velocity=0 time=30\n",
      "note_on channel=0 note=76 velocity=0 time=0\n",
      "note_on channel=0 note=59 velocity=0 time=30\n",
      "note_off channel=0 note=68 velocity=0 time=0\n",
      "note_off channel=0 note=59 velocity=0 time=30\n",
      "note_on channel=0 note=68 velocity=0 time=0\n",
      "note_off channel=0 note=76 velocity=0 time=0\n",
      "note_on channel=0 note=75 velocity=0 time=30\n",
      "note_off channel=0 note=75 velocity=0 time=29\n",
      "note_on channel=0 note=76 velocity=0 time=1\n",
      "note_off channel=0 note=68 velocity=0 time=23\n",
      "note_off channel=0 note=76 velocity=0 time=0\n",
      "note_on channel=0 note=57 velocity=0 time=7\n",
      "note_on channel=0 note=69 velocity=0 time=0\n",
      "note_on channel=0 note=73 velocity=0 time=0\n",
      "note_off channel=0 note=73 velocity=0 time=43\n",
      "note_on channel=0 note=75 velocity=0 time=0\n",
      "note_off channel=0 note=75 velocity=0 time=59\n",
      "note_on channel=0 note=76 velocity=0 time=1\n",
      "note_off channel=0 note=69 velocity=0 time=59\n",
      "MetaMessage('end_of_track', time=1)\n"
     ]
    }
   ],
   "source": [
    "for track in midi_out.tracks:\n",
    "    print('\\t---')\n",
    "\n",
    "    on_notes = []\n",
    "    last_velocity = None\n",
    "\n",
    "    for msg in track:\n",
    "        print(msg)"
   ]
  },
  {
   "cell_type": "code",
   "execution_count": 23,
   "metadata": {},
   "outputs": [
    {
     "name": "stdout",
     "output_type": "stream",
     "text": [
      "\t---\n",
      "MidiTrack([\n",
      "  MetaMessage('set_tempo', tempo=1000000, time=0),\n",
      "  MetaMessage('time_signature', numerator=4, denominator=4, clocks_per_click=24, notated_32nd_notes_per_beat=8, time=0),\n",
      "  MetaMessage('key_signature', key='E', time=0)])\n",
      "\t---\n",
      "MidiTrack([\n",
      "  Message('program_change', channel=0, program=0, time=0),\n",
      "  Message('control_change', channel=0, control=7, value=110, time=0),\n",
      "  Message('control_change', channel=0, control=64, value=127, time=0)])\n"
     ]
    }
   ],
   "source": [
    "for track in mid.tracks:\n",
    "    print('\\t---')\n",
    "\n",
    "    on_notes = []\n",
    "    last_velocity = None\n",
    "\n",
    "    print(track[:3])\n",
    "    continue\n",
    "\n",
    "    for msg in track:\n",
    "        print(msg)"
   ]
  },
  {
   "cell_type": "code",
   "execution_count": 17,
   "metadata": {},
   "outputs": [
    {
     "data": {
      "text/plain": [
       "[2, 4]"
      ]
     },
     "execution_count": 17,
     "metadata": {},
     "output_type": "execute_result"
    }
   ],
   "source": [
    "arr = [2, 3, 4]\n",
    "arr.remove(3)\n",
    "arr"
   ]
  },
  {
   "cell_type": "code",
   "execution_count": 38,
   "metadata": {},
   "outputs": [],
   "source": [
    "mid = MidiFile()\n",
    "track = MidiTrack()\n",
    "mid.tracks.append(track)\n",
    "\n",
    "track.append(MetaMessage('key_signature', key='Dm'))\n",
    "track.append(MetaMessage('set_tempo', tempo=1000000))\n",
    "track.append(MetaMessage('time_signature', numerator=6, denominator=8))\n",
    "\n",
    "track.append(Message('program_change', program=12, time=10))\n",
    "track.append(Message('note_on', channel=2, note=60, velocity=64, time=1))\n",
    "track.append(Message('note_off', channel=2, note=60, velocity=100, time=2))\n",
    "\n",
    "track.append(MetaMessage('end_of_track'))\n",
    "\n",
    "mid.save('new_song.mid')"
   ]
  },
  {
   "cell_type": "code",
   "execution_count": 39,
   "metadata": {},
   "outputs": [
    {
     "data": {
      "text/html": [
       "<iframe srcdoc=\"&lt;script src=&quot;https://cdn.jsdelivr.net/combine/npm/tone@14.7.58,npm/@magenta/music@1.23.1/es6/core.js,npm/focus-visible@5,npm/html-midi-player@1.5.0&quot;&gt;&lt;/script&gt;  &amp;nbsp; &lt;a href=&quot;data:audio/midi;base64,TVRoZAAAAAYAAQABAeBNVHJrAAAAJAD/WQL/AQD/UQMPQkAA/1gEBgMYCArADAGSPEACgjxkAP8vAA==&quot; target=&quot;_blank&quot;&gt;Download MIDI&lt;/a&gt;&lt;br&gt;\n",
       "            &lt;midi-player src=&quot;data:audio/midi;base64,TVRoZAAAAAYAAQABAeBNVHJrAAAAJAD/WQL/AQD/UQMPQkAA/1gEBgMYCArADAGSPEACgjxkAP8vAA==&quot; sound-font visualizer=&quot;#myVisualizer&quot;&gt;&lt;/midi-player&gt;\n",
       "            &lt;midi-visualizer type=&quot;piano-roll&quot; id=&quot;myVisualizer&quot; style=&quot;background: #fff;&quot;&gt;&lt;/midi-visualizer&gt;\" width=\"100%\" height=\"400\"\n",
       "            style=\"border:none !important;\"\n",
       "            \"allowfullscreen\" \"webkitallowfullscreen\" \"mozallowfullscreen\">'\n",
       "            </iframe>"
      ],
      "text/plain": [
       "<midi_player.midi_player.MIDIPlayer at 0x121358340>"
      ]
     },
     "execution_count": 39,
     "metadata": {},
     "output_type": "execute_result"
    }
   ],
   "source": [
    "MIDIPlayer('new_song.mid', 400)"
   ]
  },
  {
   "cell_type": "code",
   "execution_count": null,
   "metadata": {},
   "outputs": [],
   "source": []
  }
 ],
 "metadata": {
  "kernelspec": {
   "display_name": "midi_transformer",
   "language": "python",
   "name": "python3"
  },
  "language_info": {
   "codemirror_mode": {
    "name": "ipython",
    "version": 3
   },
   "file_extension": ".py",
   "mimetype": "text/x-python",
   "name": "python",
   "nbconvert_exporter": "python",
   "pygments_lexer": "ipython3",
   "version": "3.9.21"
  }
 },
 "nbformat": 4,
 "nbformat_minor": 2
}
